<!-- Generated by IcoMoon.io -->
<svg version="1.1" xmlns="http://www.w3.org/2000/svg" width="32" height="32" viewBox="0 0 32 32">
<title>LinkedIn</title>
<path d="M9.448 11.451h-5.144v15.456h5.144v-15.456zM9.787 6.67c-0.033-1.515-1.117-2.67-2.877-2.67s-2.91 1.154-2.91 2.67c0 1.484 1.116 2.672 2.843 2.672h0.033c1.794 0 2.911-1.188 2.911-2.672zM28 18.045c0-4.747-2.538-6.957-5.923-6.957-2.731 0-3.954 1.5-4.637 2.553v-2.189h-5.145c0.068 1.45 0 15.456 0 15.456h5.145v-8.632c0-0.462 0.033-0.923 0.169-1.253 0.372-0.923 1.218-1.878 2.639-1.878 1.862 0 2.607 1.417 2.607 3.494v8.269h5.144l0-8.862z"></path>
</svg>
