<!-- Generated by IcoMoon.io -->
<svg version="1.1" xmlns="http://www.w3.org/2000/svg" width="32" height="32" viewBox="0 0 32 32">
<title>VK</title>
<path d="M17.308 22.871c0 0 0.481-0.053 0.728-0.312 0.226-0.238 0.218-0.687 0.218-0.687s-0.030-2.098 0.963-2.408c0.978-0.305 2.234 2.029 3.567 2.927 1.007 0.679 1.771 0.53 1.771 0.53l3.562-0.049c0 0 1.863-0.113 0.979-1.55-0.073-0.118-0.515-1.064-2.648-3.007-2.234-2.034-1.934-1.705 0.755-5.225 1.638-2.143 2.293-3.452 2.088-4.011-0.194-0.535-1.399-0.393-1.399-0.393l-4.009 0.024c0 0-0.297-0.040-0.518 0.090-0.215 0.127-0.355 0.422-0.355 0.422s-0.634 1.658-1.48 3.069c-1.786 2.975-2.499 3.133-2.791 2.948-0.679-0.431-0.51-1.731-0.51-2.654 0-2.884 0.446-4.087-0.867-4.398-0.436-0.104-0.756-0.172-1.872-0.183-1.431-0.014-2.641 0.005-3.327 0.334-0.457 0.219-0.809 0.708-0.593 0.736 0.265 0.035 0.865 0.159 1.183 0.584 0.411 0.549 0.396 1.781 0.396 1.781s0.236 3.395-0.552 3.817c-0.54 0.289-1.281-0.301-2.873-3.001-0.815-1.383-1.431-2.911-1.431-2.911s-0.119-0.286-0.331-0.439c-0.257-0.186-0.616-0.243-0.616-0.243l-3.81 0.024c0 0-0.573 0.015-0.783 0.26-0.187 0.216-0.014 0.666-0.014 0.666s2.983 6.851 6.361 10.304c3.098 3.165 6.614 2.957 6.614 2.957h1.594z"></path>
</svg>
