<!-- Generated by IcoMoon.io -->
<svg version="1.1" xmlns="http://www.w3.org/2000/svg" width="32" height="32" viewBox="0 0 32 32">
<title>WhatsApp</title>
<path d="M16.056 29.231c7.321-0.003 13.275-5.958 13.277-13.277 0.001-3.548-1.378-6.884-3.885-9.393s-5.841-3.892-9.392-3.894c-7.319 0-13.275 5.956-13.278 13.277-0.001 2.34 0.61 4.624 1.772 6.638l-1.884 6.88 7.039-1.846c1.939 1.058 4.123 1.615 6.345 1.616h0.006zM10.031 25.211l-4.177 1.096 1.115-4.072-0.262-0.418c-1.105-1.757-1.688-3.788-1.687-5.873 0.002-6.085 4.953-11.035 11.040-11.035 2.948 0.001 5.719 1.15 7.802 3.236s3.23 4.859 3.229 7.807c-0.002 6.085-4.953 11.036-11.036 11.036h-0.005c-1.98-0.001-3.923-0.533-5.617-1.538l-0.403-0.239zM22.291 18.813c0.231 0.112 0.388 0.187 0.454 0.299 0.083 0.138 0.083 0.803-0.193 1.578s-1.602 1.482-2.239 1.577c-0.572 0.085-1.295 0.121-2.090-0.131-0.482-0.153-1.1-0.357-1.891-0.699-3.11-1.343-5.212-4.357-5.609-4.927-0.028-0.040-0.047-0.068-0.058-0.082l-0.003-0.004c-0.176-0.234-1.352-1.804-1.352-3.428 0-1.528 0.751-2.329 1.096-2.698 0.024-0.025 0.045-0.049 0.065-0.070 0.304-0.332 0.664-0.415 0.885-0.415s0.443 0.002 0.636 0.012c0.024 0.001 0.049 0.001 0.074 0.001 0.193-0.001 0.434-0.003 0.672 0.569 0.091 0.22 0.225 0.546 0.367 0.889 0.285 0.695 0.601 1.463 0.656 1.574 0.083 0.166 0.138 0.36 0.028 0.581-0.017 0.033-0.032 0.065-0.047 0.095-0.083 0.17-0.144 0.294-0.285 0.459-0.055 0.065-0.113 0.134-0.17 0.204-0.114 0.139-0.228 0.278-0.328 0.377-0.166 0.165-0.339 0.345-0.145 0.677s0.859 1.419 1.846 2.298c1.060 0.946 1.982 1.345 2.449 1.548 0.091 0.040 0.165 0.072 0.219 0.099 0.332 0.166 0.525 0.138 0.719-0.083s0.829-0.969 1.051-1.301c0.221-0.332 0.442-0.277 0.746-0.166s1.935 0.913 2.267 1.079c0.065 0.032 0.125 0.062 0.181 0.089z"></path>
</svg>
