<!-- Generated by IcoMoon.io -->
<svg version="1.1" xmlns="http://www.w3.org/2000/svg" width="28" height="32" viewBox="0 0 28 32">
<title>list</title>
<path d="M7.651 13.403c-0 0-0 0-0.001 0-0.152 0-0.289-0.061-0.389-0.161l0 0-1.090-1.082c-0.099-0.099-0.161-0.236-0.161-0.387s0.061-0.288 0.161-0.387v0c0.1-0.099 0.238-0.16 0.39-0.16s0.29 0.061 0.39 0.161l-0-0 0.699 0.694 1.789-1.778c0.1-0.099 0.238-0.16 0.39-0.16s0.29 0.061 0.39 0.161l-0-0c0.099 0.099 0.161 0.236 0.161 0.387s-0.061 0.288-0.161 0.387l-0 0-2.18 2.164c-0.1 0.099-0.237 0.161-0.389 0.161h-0zM19.098 12.321h-6.567c-0.303 0-0.548-0.245-0.548-0.548s0.245-0.548 0.548-0.548h6.567c0.303 0 0.548 0.245 0.548 0.548s-0.245 0.548-0.548 0.548v0zM7.651 22.785c-0 0-0.001 0-0.001 0-0.152 0-0.289-0.061-0.389-0.16l-1.090-1.082c-0.1-0.099-0.162-0.236-0.162-0.388s0.062-0.289 0.161-0.388l0-0c0.1-0.099 0.238-0.16 0.39-0.16s0.29 0.061 0.39 0.16l-0-0 0.699 0.695 1.788-1.777c0.1-0.099 0.238-0.16 0.39-0.16s0.29 0.061 0.39 0.16l-0-0c0.1 0.099 0.162 0.236 0.162 0.388s-0.062 0.289-0.161 0.388l-0 0-2.18 2.164c-0.1 0.099-0.237 0.16-0.388 0.16h-0zM19.098 21.703h-6.567c-0.303 0-0.548-0.245-0.548-0.548s0.245-0.548 0.548-0.548v0h6.567c0.303 0 0.548 0.245 0.548 0.548s-0.245 0.548-0.548 0.548v0zM7.651 27.477c-0 0-0 0-0.001 0-0.152 0-0.29-0.061-0.389-0.161l0 0-1.090-1.082c-0.099-0.099-0.161-0.236-0.161-0.387s0.061-0.288 0.161-0.387v0c0.1-0.099 0.238-0.16 0.39-0.16s0.29 0.061 0.39 0.16l-0-0 0.699 0.695 1.788-1.777c0.1-0.099 0.238-0.161 0.39-0.161s0.29 0.061 0.39 0.161l-0-0c0.099 0.099 0.161 0.236 0.161 0.387s-0.062 0.288-0.161 0.387l-2.18 2.164c-0.1 0.099-0.237 0.16-0.388 0.161h-0zM19.098 26.394h-6.567c-0.303 0-0.548-0.245-0.548-0.548s0.245-0.548 0.548-0.548h6.567c0.303 0 0.548 0.245 0.548 0.548s-0.245 0.548-0.548 0.548v0zM7.651 18.095c-0 0-0 0-0 0-0.152 0-0.29-0.062-0.39-0.161v0l-1.090-1.082c-0.099-0.099-0.161-0.236-0.161-0.387s0.061-0.288 0.161-0.387l0-0c0.1-0.099 0.238-0.16 0.39-0.16s0.29 0.061 0.39 0.16l-0-0 0.699 0.694 1.788-1.777c0.1-0.099 0.238-0.16 0.39-0.16s0.29 0.061 0.39 0.161l-0-0c0.099 0.099 0.161 0.236 0.161 0.387s-0.062 0.288-0.161 0.387l-2.178 2.165c-0.1 0.099-0.237 0.16-0.389 0.16-0.001 0-0.001 0-0.002 0h0zM19.098 17.013h-6.567c-0.303 0-0.548-0.245-0.548-0.548s0.245-0.548 0.548-0.548v0h6.567c0.008-0 0.018-0.001 0.028-0.001 0.303 0 0.548 0.245 0.548 0.548s-0.245 0.548-0.548 0.548c-0.010 0-0.019-0-0.029-0.001l0.001 0zM27.038 4.009h-6.494c-0.085-1.122-1.016-2-2.152-2-0.003 0-0.005 0-0.008 0h-2.103c-0.026-1.109-0.931-1.998-2.044-1.998s-2.018 0.889-2.044 1.995l-0 0.002h-2.109c-0.001 0-0.003 0-0.005 0-1.136 0-2.067 0.878-2.151 1.992l-0 0.007h-7.197c-0.001 0-0.002 0-0.002 0-0.404 0-0.732 0.327-0.733 0.731v26.528c0 0.001 0 0.001 0 0.002 0 0.404 0.327 0.731 0.731 0.731 0.002 0 0.003 0 0.005-0h26.305c0.001 0 0.003 0 0.005 0 0.404 0 0.731-0.327 0.731-0.731 0 0 0 0 0-0v0-26.528c-0.001-0.405-0.329-0.732-0.734-0.732-0.001 0-0.002 0-0.003 0h0zM9.393 4.162c0.001-0.382 0.31-0.691 0.692-0.691h2.299c0.001 0 0.003 0 0.004 0 0.702 0 1.272-0.567 1.276-1.268v-0.167c0-0.316 0.256-0.572 0.572-0.572s0.572 0.256 0.572 0.572v0 0.168c0.004 0.701 0.573 1.268 1.275 1.268 0 0 0.001 0 0.002 0h2.299c0.001 0 0.002 0 0.003 0 0.382 0 0.692 0.309 0.692 0.691v1.497h-9.686v-1.497zM26.302 30.536h-24.834v-25.064h6.454v0.921c0 0 0 0 0 0 0 0.404 0.327 0.731 0.731 0.731 0.002 0 0.003 0 0.005 0h11.158c0.001 0 0.003 0 0.005 0 0.404 0 0.731-0.327 0.731-0.731 0-0 0-0 0-0v0-0.921h5.75v25.066zM14.237 3.566c0.387 0.002 0.7 0.316 0.7 0.703 0 0.388-0.315 0.703-0.703 0.703s-0.703-0.315-0.703-0.703v0c0 0 0 0 0 0 0-0.388 0.315-0.703 0.703-0.703 0.001 0 0.002 0 0.004 0h-0z"></path>
</svg>
