<!-- Generated by IcoMoon.io -->
<svg version="1.1" xmlns="http://www.w3.org/2000/svg" width="31" height="32" viewBox="0 0 31 32">
<title>pen</title>
<path d="M30.047-0.004h-4.596c-0.001 0-0.002 0-0.003 0-0.429 0-0.777 0.348-0.777 0.777 0 0.001 0 0.002 0 0.003v-0 1.605h-18.559v-1.605c0-0.001 0-0.002 0-0.003 0-0.429-0.348-0.777-0.777-0.777-0.001 0-0.002 0-0.003 0h-4.553c-0.001 0-0.002 0-0.003 0-0.429 0-0.777 0.348-0.777 0.777 0 0.001 0 0.002 0 0.003v-0 4.727c0 0.001 0 0.002 0 0.002 0 0.429 0.348 0.777 0.777 0.777 0.001 0 0.002 0 0.003 0h4.596c0.001 0 0.002 0 0.003 0 0.429 0 0.777-0.348 0.777-0.777 0-0.001 0-0.002 0-0.003v0-1.604h8.542c-0.087 1.908-4.727 10.885-7.675 16.176-0.055 0.105-0.087 0.23-0.087 0.363 0 0.234 0.1 0.444 0.259 0.591l0.001 0.001c2.645 2.255 3.296 4.467 3.469 5.594h-0.998c-0.001 0-0.002 0-0.003 0-0.429 0-0.777 0.348-0.777 0.777 0 0.001 0 0.002 0 0.003v-0 3.816c0 0.001 0 0.002 0 0.003 0 0.429 0.348 0.777 0.777 0.777 0.001 0 0.002 0 0.004 0h11.534c0.001 0 0.002 0 0.003 0 0.429 0 0.777-0.348 0.777-0.777 0-0.001 0-0.002 0-0.004v0-3.816c0-0.001 0-0.002 0-0.003 0-0.429-0.348-0.777-0.777-0.777-0.001 0-0.002 0-0.003 0h-0.997c0.173-1.128 0.824-3.339 3.469-5.594 0.162-0.146 0.263-0.355 0.263-0.589 0-0.133-0.033-0.259-0.091-0.369l0.002 0.004c-2.949-5.291-7.588-14.311-7.675-16.176h8.499v1.605c0 0.001 0 0.002 0 0.002 0 0.429 0.348 0.777 0.777 0.777 0.001 0 0.002 0 0.003 0h4.596c0.001 0 0.002 0 0.003 0 0.429 0 0.777-0.348 0.777-0.777 0-0.001 0-0.002 0-0.004v0-4.726c0-0.001 0-0.002 0-0.003 0-0.429-0.348-0.777-0.777-0.777-0.001 0-0.002 0-0.003 0h0zM4.593 4.723h-3.079v-3.209h3.079v3.209zM15.434 17.429c0 0 0 0 0 0 0.551 0 0.998 0.447 0.998 0.998s-0.447 0.998-0.998 0.998c-0.551 0-0.998-0.447-0.998-0.998 0-0.001 0-0.001 0-0.002v0c0.024-0.541 0.456-0.973 0.995-0.996l0.002-0zM20.466 30.396h-10.018v-2.298h10.018v2.299zM18.688 26.58h-6.506c-0.173-1.258-0.824-3.773-3.556-6.332 1.041-1.908 4.163-7.632 6.027-11.883v7.676c-1.014 0.329-1.735 1.265-1.735 2.37 0 0.005 0 0.011 0 0.016v-0.001c0 0.002 0 0.004 0 0.006 0 1.389 1.126 2.515 2.515 2.515s2.515-1.126 2.515-2.515c0-1.11-0.719-2.052-1.717-2.386l-0.018-0.005v-7.719c1.908 4.25 4.987 9.974 6.027 11.926-2.731 2.559-3.382 5.074-3.555 6.332zM29.311 4.724h-3.080v-3.167h3.079v3.166z"></path>
</svg>
