<!-- Generated by IcoMoon.io -->
<svg version="1.1" xmlns="http://www.w3.org/2000/svg" width="20" height="32" viewBox="0 0 20 32">
<title>scroll</title>
<path d="M9.946 8.438c-0.001 0-0.001 0-0.002 0-0.792 0-1.435 0.642-1.435 1.435s0.642 1.435 1.435 1.435c0.792 0 1.435-0.642 1.435-1.435v0c-0.001-0.792-0.642-1.433-1.433-1.435h-0zM9.118-0.006c-5.119 0.43-9.111 4.687-9.118 9.879v12.174c0 5.493 4.453 9.946 9.946 9.946s9.946-4.453 9.946-9.946v0-12.173c-0.009-5.193-4.003-9.45-9.087-9.877l-0.036-0.002zM9.946 30.349c-4.581-0.008-8.291-3.721-8.295-8.302v-12.173c0-4.581 3.714-8.295 8.295-8.295s8.295 3.714 8.295 8.295v0 12.172c-0.003 4.582-3.714 8.296-8.294 8.304h-0.001z"></path>
</svg>
