<!-- Generated by IcoMoon.io -->
<svg version="1.1" xmlns="http://www.w3.org/2000/svg" width="32" height="32" viewBox="0 0 32 32">
<title>Photo</title>
<path d="M16 0c8.837 0 16 7.163 16 16s-7.163 16-16 16c-8.837 0-16-7.163-16-16s7.163-16 16-16zM16 0.696c-8.452 0-15.304 6.852-15.304 15.304s6.852 15.304 15.304 15.304c8.452 0 15.304-6.852 15.304-15.304s-6.852-15.304-15.304-15.304zM21.844 12.648c-0.25-0.259-0.595-0.412-0.988-0.412h-1.976v-0.024c0-0.294-0.119-0.576-0.321-0.765-0.202-0.2-0.476-0.318-0.774-0.318h-3.571c-0.309 0-0.583 0.118-0.786 0.318s-0.321 0.471-0.321 0.765v0.024h-1.964c-0.393 0-0.738 0.153-0.988 0.412-0.25 0.247-0.417 0.6-0.417 0.976v5.858c0 0.388 0.155 0.729 0.417 0.976 0.25 0.247 0.607 0.412 0.988 0.412h9.713c0.393 0 0.738-0.153 0.988-0.412 0.25-0.247 0.417-0.6 0.417-0.976v-5.858c0-0.388-0.155-0.729-0.417-0.976zM21.642 19.482h-0.012c0 0.212-0.083 0.4-0.226 0.541s-0.333 0.224-0.548 0.224h-9.713c-0.214 0-0.405-0.082-0.548-0.224s-0.226-0.329-0.226-0.541v-5.858c0-0.212 0.083-0.4 0.226-0.541s0.333-0.223 0.548-0.223h2.297c0.178 0 0.321-0.141 0.321-0.318v-0.341c0-0.129 0.048-0.247 0.131-0.329s0.202-0.129 0.333-0.129h3.559c0.131 0 0.25 0.047 0.333 0.129s0.131 0.2 0.131 0.329v0.341c0 0.176 0.143 0.318 0.321 0.318h2.297c0.214 0 0.405 0.082 0.548 0.223s0.226 0.329 0.226 0.541v5.858zM16 13.913c-0.769 0-1.47 0.317-1.968 0.814-0.509 0.509-0.814 1.199-0.814 1.968s0.317 1.47 0.814 1.968c0.509 0.509 1.199 0.814 1.968 0.814s1.47-0.317 1.968-0.814c0.509-0.509 0.814-1.199 0.814-1.968s-0.317-1.47-0.814-1.968c-0.498-0.498-1.199-0.814-1.968-0.814zM17.538 18.245c-0.396 0.385-0.939 0.633-1.538 0.633s-1.142-0.249-1.538-0.633c-0.396-0.396-0.633-0.939-0.633-1.538s0.249-1.142 0.633-1.538c0.396-0.396 0.939-0.633 1.538-0.633s1.142 0.249 1.538 0.633c0.396 0.396 0.633 0.939 0.633 1.538 0.011 0.599-0.238 1.142-0.633 1.538zM20.174 14.609c0.384 0 0.696-0.311 0.696-0.696s-0.311-0.696-0.696-0.696c-0.384 0-0.696 0.311-0.696 0.696s0.311 0.696 0.696 0.696z"></path>
</svg>
