<!-- Generated by IcoMoon.io -->
<svg version="1.1" xmlns="http://www.w3.org/2000/svg" width="32" height="32" viewBox="0 0 32 32">
<title>Stars</title>
<path d="M16 0c8.837 0 16 7.163 16 16s-7.163 16-16 16c-8.837 0-16-7.163-16-16s7.163-16 16-16zM16 0.696c-8.452 0-15.304 6.852-15.304 15.304s6.852 15.304 15.304 15.304c8.452 0 15.304-6.852 15.304-15.304s-6.852-15.304-15.304-15.304zM22.571 8.666c0 3.086 2.573 3.184 2.859 3.184 0.167 0 0.31 0.147 0.31 0.318 0 0.196-0.143 0.343-0.31 0.343h-0.024c-0.286 0-2.859 0.098-2.859 3.184 0 0.196-0.143 0.343-0.286 0.294-0.167 0-0.31-0.147-0.31-0.318 0-3.086-2.549-3.184-2.859-3.184-0.167 0-0.31-0.147-0.31-0.318s0.119-0.294 0.286-0.318h0.024c0.286 0 2.859-0.098 2.859-3.184 0-0.171 0.143-0.318 0.31-0.318s0.31 0.147 0.31 0.318zM20.522 12.194c0.643 0.294 1.31 0.808 1.715 1.739 0.381-0.882 1.024-1.445 1.715-1.739-0.643-0.294-1.334-0.808-1.715-1.739-0.381 0.882-1.024 1.445-1.715 1.739zM19.853 17.402c0.096 0.025 0.215 0.075 0.263 0.175 0.072 0.1 0.072 0.225 0.024 0.325-0.072 0.1-0.168 0.175-0.287 0.175-0.551 0-5.268 0.225-5.268 5.947 0 0.175-0.144 0.325-0.311 0.325s-0.311-0.15-0.311-0.325c0-5.747-4.717-5.947-5.268-5.947h-0.024c-0.12 0-0.239-0.075-0.287-0.175s-0.048-0.225 0-0.325c0.007-0.008 0.015-0.017 0.022-0.028 0.018-0.025 0.040-0.054 0.073-0.072 0.048-0.050 0.12-0.075 0.192-0.075 0.527 0 5.268-0.2 5.268-5.947 0-0.175 0.144-0.325 0.311-0.325s0.311 0.15 0.311 0.325c0 5.747 4.741 5.947 5.292 5.947zM10.515 17.727c1.341 0.45 3.041 1.474 3.735 3.848 0.694-2.374 2.395-3.398 3.735-3.848-1.341-0.45-3.041-1.474-3.735-3.848-0.694 2.374-2.394 3.398-3.735 3.848z"></path>
</svg>
