<!-- Generated by IcoMoon.io -->
<svg version="1.1" xmlns="http://www.w3.org/2000/svg" width="32" height="32" viewBox="0 0 32 32">
<title>Inst</title>
<path d="M16.001 2.665c-3.621 0-4.076 0.016-5.498 0.081-1.42 0.065-2.388 0.29-3.236 0.619-0.877 0.341-1.621 0.796-2.362 1.538s-1.197 1.485-1.539 2.362c-0.331 0.848-0.556 1.817-0.619 3.236-0.064 1.422-0.080 1.877-0.080 5.498s0.016 4.074 0.081 5.497c0.065 1.42 0.29 2.389 0.619 3.236 0.341 0.877 0.796 1.621 1.538 2.362s1.485 1.198 2.361 1.539c0.848 0.33 1.818 0.554 3.237 0.619 1.422 0.065 1.877 0.081 5.498 0.081s4.075-0.016 5.497-0.081c1.42-0.065 2.39-0.29 3.238-0.619 0.877-0.341 1.62-0.797 2.36-1.539s1.197-1.485 1.539-2.362c0.328-0.848 0.553-1.817 0.619-3.236 0.064-1.422 0.081-1.876 0.081-5.497s-0.017-4.076-0.081-5.498c-0.067-1.42-0.292-2.389-0.619-3.236-0.342-0.877-0.797-1.621-1.539-2.362s-1.483-1.197-2.361-1.538c-0.85-0.33-1.82-0.554-3.239-0.619-1.422-0.065-1.875-0.081-5.498-0.081h0.004zM14.804 5.068c0.232-0 0.482-0 0.751-0l0.445 0c3.56 0 3.982 0.013 5.388 0.077 1.3 0.059 2.006 0.277 2.476 0.459 0.622 0.242 1.066 0.531 1.532 0.997s0.756 0.911 0.998 1.533c0.183 0.469 0.4 1.175 0.459 2.475 0.064 1.406 0.078 1.828 0.078 5.386s-0.014 3.981-0.078 5.386c-0.059 1.3-0.277 2.006-0.459 2.475-0.242 0.622-0.531 1.065-0.998 1.532s-0.91 0.756-1.532 0.997c-0.469 0.183-1.176 0.4-2.476 0.459-1.406 0.064-1.828 0.078-5.388 0.078s-3.982-0.014-5.388-0.078c-1.3-0.060-2.006-0.277-2.476-0.46-0.622-0.242-1.067-0.531-1.533-0.997s-0.756-0.91-0.998-1.533c-0.183-0.469-0.4-1.175-0.459-2.475-0.064-1.406-0.077-1.828-0.077-5.389s0.013-3.981 0.077-5.386c0.059-1.3 0.277-2.006 0.459-2.476 0.242-0.622 0.531-1.067 0.998-1.533s0.911-0.756 1.533-0.998c0.47-0.183 1.176-0.4 2.476-0.46 1.23-0.056 1.707-0.072 4.192-0.075v0.003zM23.118 7.282c-0.883 0-1.6 0.716-1.6 1.6s0.717 1.6 1.6 1.6c0.883 0 1.6-0.717 1.6-1.6s-0.717-1.6-1.6-1.6v0.001zM9.153 15.999c0-3.782 3.066-6.848 6.847-6.848s6.847 3.066 6.847 6.848c0 3.782-3.065 6.846-6.847 6.846s-6.848-3.065-6.848-6.846zM20.445 15.999c0-2.455-1.99-4.445-4.445-4.445s-4.445 1.99-4.445 4.445c0 2.455 1.99 4.445 4.445 4.445s4.445-1.99 4.445-4.445z"></path>
</svg>
