<svg aria-hidden="true" style="position: absolute; width: 0; height: 0; overflow: hidden;" version="1.1" xmlns="http://www.w3.org/2000/svg" xmlns:xlink="http://www.w3.org/1999/xlink">
<defs>
<symbol id="Fb" viewBox="0 0 32 32">
<path d="M17.607 29.333v-13.335h3.681l0.488-4.595h-4.169l0.006-2.3c0-1.199 0.114-1.841 1.835-1.841h2.301v-4.596h-3.681c-4.422 0-5.979 2.229-5.979 5.978v2.759h-2.756v4.595h2.756v13.334h5.517z"></path>
</symbol>
<symbol id="Inst" viewBox="0 0 32 32">
<path d="M16.001 2.665c-3.621 0-4.076 0.016-5.498 0.081-1.42 0.065-2.388 0.29-3.236 0.619-0.877 0.341-1.621 0.796-2.362 1.538s-1.197 1.485-1.539 2.362c-0.331 0.848-0.556 1.817-0.619 3.236-0.064 1.422-0.080 1.877-0.080 5.498s0.016 4.074 0.081 5.497c0.065 1.42 0.29 2.389 0.619 3.236 0.341 0.877 0.796 1.621 1.538 2.362s1.485 1.198 2.361 1.539c0.848 0.33 1.818 0.554 3.237 0.619 1.422 0.065 1.877 0.081 5.498 0.081s4.075-0.016 5.497-0.081c1.42-0.065 2.39-0.29 3.238-0.619 0.877-0.341 1.62-0.797 2.36-1.539s1.197-1.485 1.539-2.362c0.328-0.848 0.553-1.817 0.619-3.236 0.064-1.422 0.081-1.876 0.081-5.497s-0.017-4.076-0.081-5.498c-0.067-1.42-0.292-2.389-0.619-3.236-0.342-0.877-0.797-1.621-1.539-2.362s-1.483-1.197-2.361-1.538c-0.85-0.33-1.82-0.554-3.239-0.619-1.422-0.065-1.875-0.081-5.498-0.081h0.004zM14.804 5.068c0.232-0 0.482-0 0.751-0l0.445 0c3.56 0 3.982 0.013 5.388 0.077 1.3 0.059 2.006 0.277 2.476 0.459 0.622 0.242 1.066 0.531 1.532 0.997s0.756 0.911 0.998 1.533c0.183 0.469 0.4 1.175 0.459 2.475 0.064 1.406 0.078 1.828 0.078 5.386s-0.014 3.981-0.078 5.386c-0.059 1.3-0.277 2.006-0.459 2.475-0.242 0.622-0.531 1.065-0.998 1.532s-0.91 0.756-1.532 0.997c-0.469 0.183-1.176 0.4-2.476 0.459-1.406 0.064-1.828 0.078-5.388 0.078s-3.982-0.014-5.388-0.078c-1.3-0.060-2.006-0.277-2.476-0.46-0.622-0.242-1.067-0.531-1.533-0.997s-0.756-0.91-0.998-1.533c-0.183-0.469-0.4-1.175-0.459-2.475-0.064-1.406-0.077-1.828-0.077-5.389s0.013-3.981 0.077-5.386c0.059-1.3 0.277-2.006 0.459-2.476 0.242-0.622 0.531-1.067 0.998-1.533s0.911-0.756 1.533-0.998c0.47-0.183 1.176-0.4 2.476-0.46 1.23-0.056 1.707-0.072 4.192-0.075v0.003zM23.118 7.282c-0.883 0-1.6 0.716-1.6 1.6s0.717 1.6 1.6 1.6c0.883 0 1.6-0.717 1.6-1.6s-0.717-1.6-1.6-1.6v0.001zM9.153 15.999c0-3.782 3.066-6.848 6.847-6.848s6.847 3.066 6.847 6.848c0 3.782-3.065 6.846-6.847 6.846s-6.848-3.065-6.848-6.846zM20.445 15.999c0-2.455-1.99-4.445-4.445-4.445s-4.445 1.99-4.445 4.445c0 2.455 1.99 4.445 4.445 4.445s4.445-1.99 4.445-4.445z"></path>
</symbol>
<symbol id="LinkedIn" viewBox="0 0 32 32">
<path d="M9.448 11.451h-5.144v15.456h5.144v-15.456zM9.787 6.67c-0.033-1.515-1.117-2.67-2.877-2.67s-2.91 1.154-2.91 2.67c0 1.484 1.116 2.672 2.843 2.672h0.033c1.794 0 2.911-1.188 2.911-2.672zM28 18.045c0-4.747-2.538-6.957-5.923-6.957-2.731 0-3.954 1.5-4.637 2.553v-2.189h-5.145c0.068 1.45 0 15.456 0 15.456h5.145v-8.632c0-0.462 0.033-0.923 0.169-1.253 0.372-0.923 1.218-1.878 2.639-1.878 1.862 0 2.607 1.417 2.607 3.494v8.269h5.144l0-8.862z"></path>
</symbol>
<symbol id="Mail" viewBox="0 0 32 32">
<path d="M15.999 13.919c2.044 0 11.985-5.59 11.985-5.59l0.016-0.999c0-1.103-0.895-1.997-2-1.997h-20c-1.105 0-1.999 0.895-1.999 1.997v0.89c0 0 10.049 5.699 11.999 5.699zM15.999 16.666c-1.95 0-11.984-5.34-11.983-5.34l-0.016 11.985c0 1.103 0.896 1.997 1.999 1.997h20c1.106 0 2-0.895 2-1.997l-0.016-11.985c0 0-9.846 5.34-11.985 5.34z"></path>
</symbol>
<symbol id="Tg" viewBox="0 0 32 32">
<path d="M12.697 26.345c0.613 0 0.884-0.28 1.226-0.613l2.945-2.864 6.128 4.527c1.128 0.622 1.942 0.3 2.223-1.047l4.023-18.956c0.412-1.651-0.629-2.4-1.708-1.91l-23.621 9.108c-1.612 0.647-1.603 1.546-0.294 1.947l6.062 1.892 14.034-8.854c0.663-0.402 1.271-0.186 0.771 0.257l-11.371 10.262-0.417 6.251z"></path>
</symbol>
<symbol id="Twiter" viewBox="0 0 32 32">
<path d="M15.615 11.196l0.058 0.953-0.963-0.117c-3.507-0.447-6.57-1.965-9.172-4.513l-1.272-1.264-0.328 0.934c-0.694 2.081-0.25 4.28 1.195 5.758 0.771 0.817 0.597 0.934-0.732 0.447-0.462-0.156-0.867-0.272-0.906-0.214-0.135 0.136 0.328 1.906 0.694 2.607 0.501 0.973 1.522 1.926 2.64 2.49l0.944 0.447-1.118 0.019c-1.079 0-1.118 0.019-1.002 0.428 0.385 1.264 1.908 2.607 3.603 3.19l1.195 0.409-1.040 0.623c-1.541 0.895-3.353 1.401-5.164 1.439-0.867 0.019-1.58 0.097-1.58 0.156 0 0.195 2.351 1.284 3.719 1.712 4.104 1.264 8.979 0.72 12.64-1.439 2.601-1.537 5.202-4.591 6.416-7.547 0.655-1.576 1.31-4.455 1.31-5.836 0-0.895 0.058-1.012 1.137-2.081 0.636-0.622 1.233-1.303 1.349-1.498 0.193-0.37 0.173-0.37-0.809-0.039-1.638 0.584-1.869 0.506-1.060-0.37 0.597-0.622 1.31-1.751 1.31-2.081 0-0.058-0.289 0.039-0.617 0.214-0.347 0.195-1.118 0.486-1.696 0.661l-1.041 0.331-0.944-0.642c-0.52-0.35-1.252-0.739-1.638-0.856-0.983-0.272-2.485-0.233-3.372 0.078-2.409 0.875-3.931 3.132-3.757 5.602z"></path>
</symbol>
<symbol id="VK" viewBox="0 0 32 32">
<path d="M17.308 22.871c0 0 0.481-0.053 0.728-0.312 0.226-0.238 0.218-0.687 0.218-0.687s-0.030-2.098 0.963-2.408c0.978-0.305 2.234 2.029 3.567 2.927 1.007 0.679 1.771 0.53 1.771 0.53l3.562-0.049c0 0 1.863-0.113 0.979-1.55-0.073-0.118-0.515-1.064-2.648-3.007-2.234-2.034-1.934-1.705 0.755-5.225 1.638-2.143 2.293-3.452 2.088-4.011-0.194-0.535-1.399-0.393-1.399-0.393l-4.009 0.024c0 0-0.297-0.040-0.518 0.090-0.215 0.127-0.355 0.422-0.355 0.422s-0.634 1.658-1.48 3.069c-1.786 2.975-2.499 3.133-2.791 2.948-0.679-0.431-0.51-1.731-0.51-2.654 0-2.884 0.446-4.087-0.867-4.398-0.436-0.104-0.756-0.172-1.872-0.183-1.431-0.014-2.641 0.005-3.327 0.334-0.457 0.219-0.809 0.708-0.593 0.736 0.265 0.035 0.865 0.159 1.183 0.584 0.411 0.549 0.396 1.781 0.396 1.781s0.236 3.395-0.552 3.817c-0.54 0.289-1.281-0.301-2.873-3.001-0.815-1.383-1.431-2.911-1.431-2.911s-0.119-0.286-0.331-0.439c-0.257-0.186-0.616-0.243-0.616-0.243l-3.81 0.024c0 0-0.573 0.015-0.783 0.26-0.187 0.216-0.014 0.666-0.014 0.666s2.983 6.851 6.361 10.304c3.098 3.165 6.614 2.957 6.614 2.957h1.594z"></path>
</symbol>
<symbol id="WhatsApp" viewBox="0 0 32 32">
<path d="M16.056 29.231c7.321-0.003 13.275-5.958 13.277-13.277 0.001-3.548-1.378-6.884-3.885-9.393s-5.841-3.892-9.392-3.894c-7.319 0-13.275 5.956-13.278 13.277-0.001 2.34 0.61 4.624 1.772 6.638l-1.884 6.88 7.039-1.846c1.939 1.058 4.123 1.615 6.345 1.616h0.006zM10.031 25.211l-4.177 1.096 1.115-4.072-0.262-0.418c-1.105-1.757-1.688-3.788-1.687-5.873 0.002-6.085 4.953-11.035 11.040-11.035 2.948 0.001 5.719 1.15 7.802 3.236s3.23 4.859 3.229 7.807c-0.002 6.085-4.953 11.036-11.036 11.036h-0.005c-1.98-0.001-3.923-0.533-5.617-1.538l-0.403-0.239zM22.291 18.813c0.231 0.112 0.388 0.187 0.454 0.299 0.083 0.138 0.083 0.803-0.193 1.578s-1.602 1.482-2.239 1.577c-0.572 0.085-1.295 0.121-2.090-0.131-0.482-0.153-1.1-0.357-1.891-0.699-3.11-1.343-5.212-4.357-5.609-4.927-0.028-0.040-0.047-0.068-0.058-0.082l-0.003-0.004c-0.176-0.234-1.352-1.804-1.352-3.428 0-1.528 0.751-2.329 1.096-2.698 0.024-0.025 0.045-0.049 0.065-0.070 0.304-0.332 0.664-0.415 0.885-0.415s0.443 0.002 0.636 0.012c0.024 0.001 0.049 0.001 0.074 0.001 0.193-0.001 0.434-0.003 0.672 0.569 0.091 0.22 0.225 0.546 0.367 0.889 0.285 0.695 0.601 1.463 0.656 1.574 0.083 0.166 0.138 0.36 0.028 0.581-0.017 0.033-0.032 0.065-0.047 0.095-0.083 0.17-0.144 0.294-0.285 0.459-0.055 0.065-0.113 0.134-0.17 0.204-0.114 0.139-0.228 0.278-0.328 0.377-0.166 0.165-0.339 0.345-0.145 0.677s0.859 1.419 1.846 2.298c1.060 0.946 1.982 1.345 2.449 1.548 0.091 0.040 0.165 0.072 0.219 0.099 0.332 0.166 0.525 0.138 0.719-0.083s0.829-0.969 1.051-1.301c0.221-0.332 0.442-0.277 0.746-0.166s1.935 0.913 2.267 1.079c0.065 0.032 0.125 0.062 0.181 0.089z"></path>
</symbol>
</defs>
</svg>
