<!-- Generated by IcoMoon.io -->
<svg version="1.1" xmlns="http://www.w3.org/2000/svg" width="32" height="32" viewBox="0 0 32 32">
<title>Twiter</title>
<path d="M15.615 11.196l0.058 0.953-0.963-0.117c-3.507-0.447-6.57-1.965-9.172-4.513l-1.272-1.264-0.328 0.934c-0.694 2.081-0.25 4.28 1.195 5.758 0.771 0.817 0.597 0.934-0.732 0.447-0.462-0.156-0.867-0.272-0.906-0.214-0.135 0.136 0.328 1.906 0.694 2.607 0.501 0.973 1.522 1.926 2.64 2.49l0.944 0.447-1.118 0.019c-1.079 0-1.118 0.019-1.002 0.428 0.385 1.264 1.908 2.607 3.603 3.19l1.195 0.409-1.040 0.623c-1.541 0.895-3.353 1.401-5.164 1.439-0.867 0.019-1.58 0.097-1.58 0.156 0 0.195 2.351 1.284 3.719 1.712 4.104 1.264 8.979 0.72 12.64-1.439 2.601-1.537 5.202-4.591 6.416-7.547 0.655-1.576 1.31-4.455 1.31-5.836 0-0.895 0.058-1.012 1.137-2.081 0.636-0.622 1.233-1.303 1.349-1.498 0.193-0.37 0.173-0.37-0.809-0.039-1.638 0.584-1.869 0.506-1.060-0.37 0.597-0.622 1.31-1.751 1.31-2.081 0-0.058-0.289 0.039-0.617 0.214-0.347 0.195-1.118 0.486-1.696 0.661l-1.041 0.331-0.944-0.642c-0.52-0.35-1.252-0.739-1.638-0.856-0.983-0.272-2.485-0.233-3.372 0.078-2.409 0.875-3.931 3.132-3.757 5.602z"></path>
</svg>
