<svg aria-hidden="true" style="position: absolute; width: 0; height: 0; overflow: hidden;" version="1.1" xmlns="http://www.w3.org/2000/svg" xmlns:xlink="http://www.w3.org/1999/xlink">
<defs>
<symbol id="icon-window" viewBox="0 0 33 32">
<path d="M32.388 32h-31.513c-0.484-0.002-0.876-0.395-0.876-0.88 0-0.001 0-0.003 0-0.004v0-25.651c0-0.001 0-0.003 0-0.004 0-0.485 0.392-0.878 0.876-0.88h31.513c0.484 0.003 0.875 0.396 0.875 0.88 0 0.002 0 0.003 0 0.004v-0 25.651c0 0.001 0 0.003 0 0.004 0 0.484-0.391 0.877-0.875 0.88h-0zM1.75 30.232h29.763v-23.882h-29.763v23.882zM32.388 6.349h-31.513c-0.484-0.002-0.876-0.395-0.876-0.88 0-0.001 0-0.003 0-0.004v0-4.585c0-0.001 0-0.003 0-0.004 0-0.485 0.392-0.878 0.876-0.88h31.513c0.484 0.003 0.875 0.396 0.875 0.88 0 0.001 0 0.003 0 0.004v-0 4.585c0 0.001 0 0.003 0 0.004 0 0.484-0.391 0.877-0.875 0.88h-0zM1.75 4.581h29.763v-2.817h-29.763v2.817zM3.866 2.556h-0c-0.339 0.002-0.612 0.277-0.612 0.616 0 0.001 0 0.002 0 0.003v0c0 0.342 0.277 0.619 0.619 0.619s0.619-0.277 0.619-0.619c0-0.342-0.277-0.619-0.619-0.619-0.002 0-0.004 0-0.006 0zM5.697 2.556h-0c-0.338 0.002-0.612 0.277-0.612 0.616 0 0.001 0 0.002 0 0.003v0c0.001 0.34 0.277 0.615 0.617 0.615s0.617-0.276 0.617-0.617-0.276-0.617-0.617-0.617c-0.002 0-0.004 0-0.005 0zM7.529 2.556h-0c-0.338 0.002-0.612 0.277-0.612 0.616 0 0.001 0 0.002 0 0.003v0c0 0.342 0.277 0.619 0.619 0.619s0.619-0.277 0.619-0.619c0-0.342-0.277-0.619-0.619-0.619-0.002 0-0.005 0-0.007 0zM12.229 20.707v0c0 0 0 0 0 0 0.212 0 0.404-0.087 0.541-0.227l-0 0c0.139-0.141 0.224-0.334 0.224-0.547s-0.086-0.407-0.224-0.547l-1.842-1.857 1.837-1.857c0.139-0.141 0.225-0.334 0.225-0.547s-0.086-0.407-0.225-0.547v0c-0.139-0.139-0.33-0.224-0.542-0.224s-0.403 0.086-0.542 0.224l-2.378 2.404c-0.139 0.141-0.225 0.334-0.225 0.547s0.086 0.407 0.225 0.547l2.383 2.404c0.138 0.14 0.329 0.227 0.541 0.227 0 0 0 0 0 0zM21.037 20.707v0c0.212-0 0.403-0.087 0.541-0.227l2.379-2.404c0.139-0.14 0.225-0.333 0.225-0.545s-0.086-0.405-0.225-0.545l-2.383-2.408c-0.139-0.139-0.33-0.224-0.541-0.224s-0.403 0.086-0.541 0.224l0-0c-0.139 0.141-0.224 0.334-0.224 0.547s0.086 0.407 0.224 0.547l1.842 1.861-1.838 1.853c-0.139 0.141-0.225 0.334-0.225 0.547s0.086 0.407 0.225 0.547l0 0c0.138 0.14 0.329 0.227 0.541 0.227 0 0 0 0 0 0zM15.534 22.493h0c0.356-0.001 0.656-0.245 0.741-0.581l1.946-7.691c0.017-0.063 0.026-0.13 0.026-0.199 0-0.358-0.243-0.659-0.578-0.75l0.005 0.001c-0.062-0.016-0.126-0.025-0.193-0.025-0.358 0-0.659 0.246-0.744 0.583l-1.945 7.691c-0.017 0.063-0.025 0.129-0.025 0.197 0 0.357 0.242 0.657 0.577 0.747l-0.005-0.001c0.062 0.017 0.128 0.026 0.196 0.026z"></path>
</symbol>
<symbol id="icon-list" viewBox="0 0 28 32">
<path d="M7.651 13.403c-0 0-0 0-0.001 0-0.152 0-0.289-0.061-0.389-0.161l0 0-1.090-1.082c-0.099-0.099-0.161-0.236-0.161-0.387s0.061-0.288 0.161-0.387v0c0.1-0.099 0.238-0.16 0.39-0.16s0.29 0.061 0.39 0.161l-0-0 0.699 0.694 1.789-1.778c0.1-0.099 0.238-0.16 0.39-0.16s0.29 0.061 0.39 0.161l-0-0c0.099 0.099 0.161 0.236 0.161 0.387s-0.061 0.288-0.161 0.387l-0 0-2.18 2.164c-0.1 0.099-0.237 0.161-0.389 0.161h-0zM19.098 12.321h-6.567c-0.303 0-0.548-0.245-0.548-0.548s0.245-0.548 0.548-0.548h6.567c0.303 0 0.548 0.245 0.548 0.548s-0.245 0.548-0.548 0.548v0zM7.651 22.785c-0 0-0.001 0-0.001 0-0.152 0-0.289-0.061-0.389-0.16l-1.090-1.082c-0.1-0.099-0.162-0.236-0.162-0.388s0.062-0.289 0.161-0.388l0-0c0.1-0.099 0.238-0.16 0.39-0.16s0.29 0.061 0.39 0.16l-0-0 0.699 0.695 1.788-1.777c0.1-0.099 0.238-0.16 0.39-0.16s0.29 0.061 0.39 0.16l-0-0c0.1 0.099 0.162 0.236 0.162 0.388s-0.062 0.289-0.161 0.388l-0 0-2.18 2.164c-0.1 0.099-0.237 0.16-0.388 0.16h-0zM19.098 21.703h-6.567c-0.303 0-0.548-0.245-0.548-0.548s0.245-0.548 0.548-0.548v0h6.567c0.303 0 0.548 0.245 0.548 0.548s-0.245 0.548-0.548 0.548v0zM7.651 27.477c-0 0-0 0-0.001 0-0.152 0-0.29-0.061-0.389-0.161l0 0-1.090-1.082c-0.099-0.099-0.161-0.236-0.161-0.387s0.061-0.288 0.161-0.387v0c0.1-0.099 0.238-0.16 0.39-0.16s0.29 0.061 0.39 0.16l-0-0 0.699 0.695 1.788-1.777c0.1-0.099 0.238-0.161 0.39-0.161s0.29 0.061 0.39 0.161l-0-0c0.099 0.099 0.161 0.236 0.161 0.387s-0.062 0.288-0.161 0.387l-2.18 2.164c-0.1 0.099-0.237 0.16-0.388 0.161h-0zM19.098 26.394h-6.567c-0.303 0-0.548-0.245-0.548-0.548s0.245-0.548 0.548-0.548h6.567c0.303 0 0.548 0.245 0.548 0.548s-0.245 0.548-0.548 0.548v0zM7.651 18.095c-0 0-0 0-0 0-0.152 0-0.29-0.062-0.39-0.161v0l-1.090-1.082c-0.099-0.099-0.161-0.236-0.161-0.387s0.061-0.288 0.161-0.387l0-0c0.1-0.099 0.238-0.16 0.39-0.16s0.29 0.061 0.39 0.16l-0-0 0.699 0.694 1.788-1.777c0.1-0.099 0.238-0.16 0.39-0.16s0.29 0.061 0.39 0.161l-0-0c0.099 0.099 0.161 0.236 0.161 0.387s-0.062 0.288-0.161 0.387l-2.178 2.165c-0.1 0.099-0.237 0.16-0.389 0.16-0.001 0-0.001 0-0.002 0h0zM19.098 17.013h-6.567c-0.303 0-0.548-0.245-0.548-0.548s0.245-0.548 0.548-0.548v0h6.567c0.008-0 0.018-0.001 0.028-0.001 0.303 0 0.548 0.245 0.548 0.548s-0.245 0.548-0.548 0.548c-0.010 0-0.019-0-0.029-0.001l0.001 0zM27.038 4.009h-6.494c-0.085-1.122-1.016-2-2.152-2-0.003 0-0.005 0-0.008 0h-2.103c-0.026-1.109-0.931-1.998-2.044-1.998s-2.018 0.889-2.044 1.995l-0 0.002h-2.109c-0.001 0-0.003 0-0.005 0-1.136 0-2.067 0.878-2.151 1.992l-0 0.007h-7.197c-0.001 0-0.002 0-0.002 0-0.404 0-0.732 0.327-0.733 0.731v26.528c0 0.001 0 0.001 0 0.002 0 0.404 0.327 0.731 0.731 0.731 0.002 0 0.003 0 0.005-0h26.305c0.001 0 0.003 0 0.005 0 0.404 0 0.731-0.327 0.731-0.731 0 0 0 0 0-0v0-26.528c-0.001-0.405-0.329-0.732-0.734-0.732-0.001 0-0.002 0-0.003 0h0zM9.393 4.162c0.001-0.382 0.31-0.691 0.692-0.691h2.299c0.001 0 0.003 0 0.004 0 0.702 0 1.272-0.567 1.276-1.268v-0.167c0-0.316 0.256-0.572 0.572-0.572s0.572 0.256 0.572 0.572v0 0.168c0.004 0.701 0.573 1.268 1.275 1.268 0 0 0.001 0 0.002 0h2.299c0.001 0 0.002 0 0.003 0 0.382 0 0.692 0.309 0.692 0.691v1.497h-9.686v-1.497zM26.302 30.536h-24.834v-25.064h6.454v0.921c0 0 0 0 0 0 0 0.404 0.327 0.731 0.731 0.731 0.002 0 0.003 0 0.005 0h11.158c0.001 0 0.003 0 0.005 0 0.404 0 0.731-0.327 0.731-0.731 0-0 0-0 0-0v0-0.921h5.75v25.066zM14.237 3.566c0.387 0.002 0.7 0.316 0.7 0.703 0 0.388-0.315 0.703-0.703 0.703s-0.703-0.315-0.703-0.703v0c0 0 0 0 0 0 0-0.388 0.315-0.703 0.703-0.703 0.001 0 0.002 0 0.004 0h-0z"></path>
</symbol>
<symbol id="icon-b" viewBox="0 0 31 32">
<path stroke-linejoin="miter" stroke-linecap="butt" stroke-miterlimit="4" stroke-width="0.9014" d="M28.699 31.034l-12.987-24.789-12.987 24.789h25.974z"></path>
<path stroke-linejoin="miter" stroke-linecap="butt" stroke-miterlimit="4" stroke-width="0.9014" d="M15.549 0.451c8.213 0.072 14.843 6.747 14.843 14.97 0 8.268-6.703 14.971-14.971 14.971s-14.971-6.703-14.971-14.971c0-0 0-0 0-0v0c0.037-8.275 6.753-14.97 15.034-14.97 0.023 0 0.045 0 0.068 0h-0.004z"></path>
<path d="M15.712 28.781c0.884 0.007 1.597 0.725 1.597 1.61 0 0.889-0.721 1.61-1.61 1.61s-1.61-0.721-1.61-1.61v0c0.004-0.89 0.726-1.61 1.617-1.61 0.002 0 0.004 0 0.006 0h-0z"></path>
<path d="M29.352 30.387c0 0.899-0.728 1.627-1.627 1.627s-1.627-0.728-1.627-1.627c0-0.899 0.728-1.627 1.627-1.627s1.627 0.728 1.627 1.627z"></path>
<path d="M2.724 28.781c0.884 0.007 1.597 0.725 1.597 1.61 0 0.889-0.721 1.61-1.61 1.61s-1.61-0.721-1.61-1.61v0c0.004-0.89 0.726-1.61 1.617-1.61 0.002 0 0.004 0 0.006 0h-0z"></path>
</symbol>
<symbol id="icon-pen" viewBox="0 0 31 32">
<path d="M30.047-0.004h-4.596c-0.001 0-0.002 0-0.003 0-0.429 0-0.777 0.348-0.777 0.777 0 0.001 0 0.002 0 0.003v-0 1.605h-18.559v-1.605c0-0.001 0-0.002 0-0.003 0-0.429-0.348-0.777-0.777-0.777-0.001 0-0.002 0-0.003 0h-4.553c-0.001 0-0.002 0-0.003 0-0.429 0-0.777 0.348-0.777 0.777 0 0.001 0 0.002 0 0.003v-0 4.727c0 0.001 0 0.002 0 0.002 0 0.429 0.348 0.777 0.777 0.777 0.001 0 0.002 0 0.003 0h4.596c0.001 0 0.002 0 0.003 0 0.429 0 0.777-0.348 0.777-0.777 0-0.001 0-0.002 0-0.003v0-1.604h8.542c-0.087 1.908-4.727 10.885-7.675 16.176-0.055 0.105-0.087 0.23-0.087 0.363 0 0.234 0.1 0.444 0.259 0.591l0.001 0.001c2.645 2.255 3.296 4.467 3.469 5.594h-0.998c-0.001 0-0.002 0-0.003 0-0.429 0-0.777 0.348-0.777 0.777 0 0.001 0 0.002 0 0.003v-0 3.816c0 0.001 0 0.002 0 0.003 0 0.429 0.348 0.777 0.777 0.777 0.001 0 0.002 0 0.004 0h11.534c0.001 0 0.002 0 0.003 0 0.429 0 0.777-0.348 0.777-0.777 0-0.001 0-0.002 0-0.004v0-3.816c0-0.001 0-0.002 0-0.003 0-0.429-0.348-0.777-0.777-0.777-0.001 0-0.002 0-0.003 0h-0.997c0.173-1.128 0.824-3.339 3.469-5.594 0.162-0.146 0.263-0.355 0.263-0.589 0-0.133-0.033-0.259-0.091-0.369l0.002 0.004c-2.949-5.291-7.588-14.311-7.675-16.176h8.499v1.605c0 0.001 0 0.002 0 0.002 0 0.429 0.348 0.777 0.777 0.777 0.001 0 0.002 0 0.003 0h4.596c0.001 0 0.002 0 0.003 0 0.429 0 0.777-0.348 0.777-0.777 0-0.001 0-0.002 0-0.004v0-4.726c0-0.001 0-0.002 0-0.003 0-0.429-0.348-0.777-0.777-0.777-0.001 0-0.002 0-0.003 0h0zM4.593 4.723h-3.079v-3.209h3.079v3.209zM15.434 17.429c0 0 0 0 0 0 0.551 0 0.998 0.447 0.998 0.998s-0.447 0.998-0.998 0.998c-0.551 0-0.998-0.447-0.998-0.998 0-0.001 0-0.001 0-0.002v0c0.024-0.541 0.456-0.973 0.995-0.996l0.002-0zM20.466 30.396h-10.018v-2.298h10.018v2.299zM18.688 26.58h-6.506c-0.173-1.258-0.824-3.773-3.556-6.332 1.041-1.908 4.163-7.632 6.027-11.883v7.676c-1.014 0.329-1.735 1.265-1.735 2.37 0 0.005 0 0.011 0 0.016v-0.001c0 0.002 0 0.004 0 0.006 0 1.389 1.126 2.515 2.515 2.515s2.515-1.126 2.515-2.515c0-1.11-0.719-2.052-1.717-2.386l-0.018-0.005v-7.719c1.908 4.25 4.987 9.974 6.027 11.926-2.731 2.559-3.382 5.074-3.555 6.332zM29.311 4.724h-3.080v-3.167h3.079v3.166z"></path>
</symbol>
<symbol id="icon-scroll" viewBox="0 0 20 32">
<path d="M9.946 8.438c-0.001 0-0.001 0-0.002 0-0.792 0-1.435 0.642-1.435 1.435s0.642 1.435 1.435 1.435c0.792 0 1.435-0.642 1.435-1.435v0c-0.001-0.792-0.642-1.433-1.433-1.435h-0zM9.118-0.006c-5.119 0.43-9.111 4.687-9.118 9.879v12.174c0 5.493 4.453 9.946 9.946 9.946s9.946-4.453 9.946-9.946v0-12.173c-0.009-5.193-4.003-9.45-9.087-9.877l-0.036-0.002zM9.946 30.349c-4.581-0.008-8.291-3.721-8.295-8.302v-12.173c0-4.581 3.714-8.295 8.295-8.295s8.295 3.714 8.295 8.295v0 12.172c-0.003 4.582-3.714 8.296-8.294 8.304h-0.001z"></path>
</symbol>
</defs>
</svg>
