<svg xmlns="http://www.w3.org/2000/svg" width="78.969" height="91"><path d="M21.756 38.114a1.569 1.569 0 01-1.109-.457l-3.1-3.077a1.553 1.553 0 010-2.2 1.577 1.577 0 012.219 0l1.989 1.975 5.088-5.055a1.577 1.577 0 012.219 0 1.552 1.552 0 010 2.2l-6.2 6.155a1.578 1.578 0 01-1.106.459zm32.555-3.077H35.637a1.559 1.559 0 110-3.118h18.674a1.559 1.559 0 110 3.118zM21.756 64.794a1.569 1.569 0 01-1.109-.456l-3.1-3.077a1.553 1.553 0 010-2.205 1.577 1.577 0 012.219 0l1.989 1.975 5.086-5.052a1.577 1.577 0 012.219 0 1.553 1.553
 0 010 2.205l-6.2 6.155a1.578 1.578 0 01-1.104.455zm32.555-3.077H35.637a1.559 1.559 0 110-3.118h18.674a1.559 1.559 0 110 3.118zm-32.555 16.42a1.57 1.57 0 
01-1.109-.457l-3.1-3.078a1.553 1.553 0 010-2.2 1.578 1.578 0 012.219 0l1.989 1.976 5.086-5.052a1.576 1.576 0
 012.219 0 1.551 1.551 0 010 2.2l-6.2 6.154a1.58 1.58 0 01-1.104.457zm32.555-3.079H35.637a1.559 1.559 0 110-3.118h18.674a1.559 1.559 0 110 3.118zm-32.555-23.6A1.57 1.57 0 0120.647 51l-3.1-3.078a1.552 1.552 0 010-2.2 1.577
  1.577 0 012.219 0l1.989 1.974 5.086-5.052a1.577 1.577 0 012.219 0 1.551 1.551 0 010 2.2L22.867 
  51a1.574 1.574 0 01-1.111.454zm32.555-3.076H35.637a1.559 1.559 0 
  110-3.118h18.674a1.559 1.559 0 110 3.114zM76.888 11.4H58.422a6.137 6.137 0 00-6.141-5.686H46.3a5.813 5.813 0 00-11.623 0h-5.998a6.134 6.134 0 00-6.131 5.686H2.081a2.085 2.085 0 00-2.092 2.078v75.438A2.078 2.078 0 002.081 91h74.807a2.079 2.079 0 002.093-2.079V13.483a2.086 2.086 0 00-2.093-2.083zm-50.177.437a1.968 1.968 0 
  011.967-1.965h6.539a3.63 3.63 0 003.641-3.606v-.473a1.627 1.627 0 013.254 0v.478a3.626 3.626 0 003.63 3.606h6.539a1.969 1.969 0 011.977 1.965V16.1H26.713v-4.258zm48.085 75H4.173V15.562h18.353v2.619a2.079 2.079 0 002.092 2.079h31.731a2.078 2.078 0 002.092-2.079v-2.619h16.353v71.281zM40.485 10.14a2 2 0 11-2.01 2 2 2 0 012.01-2z" 
  fill="#3c3c3c" fill-rule="evenodd"/></svg>