<svg xmlns="http://www.w3.org/2000/svg" width="79.969" height="83.031"><path d="M77.956-.011H66.032a2.017 2.017 0 00-2.025 2.025v4.163H15.861V2.014a2.017 2.017 0 00-2.025-2.025H2.024A2.017 2.017 0 000 2.014v12.263A2.017 2.017 0 002.024 16.3h11.924a2.017 2.017 0 002.025-2.025v-4.161h22.161c-.225 4.951-12.262 28.239-19.911 41.965a2.083 2.083 0 00.45 2.475c6.862 5.85 8.55 11.588 9 14.513h-2.588a2.017 2.017 0 00-2.025 2.025v9.9a2.016 2.016 0 002.025 2.025h29.923a2.016 2.016 0 002.025-2.025v-9.9a2.017 2.017 0 00-2.025-2.025H52.42c.45-2.925 2.137-8.663 9-14.513a2.054 2.054 0 00.45-2.475c-7.65-13.725-19.686-37.127-19.911-41.965h22.048v4.163a2.017 2.017 0 002.025 2.023h11.924a2.016 2.016 0 002.025-2.025V2.014a2.017 2.017 0 00-2.025-2.025zM11.923 12.252H3.936V3.926h7.987v8.326zm28.123 32.964a2.588 2.588 0 11-2.587 2.584 2.7 2.7 0 012.587-2.584zM53.1 78.855H27.11v-5.962H53.1v5.963zm-4.612-9.9H31.609c-.45-3.263-2.137-9.788-9.224-16.426 2.7-4.95 10.8-19.8 15.636-30.827v19.914a6.451 6.451 0 00-4.5 6.188 6.525 6.525 0 108.549-6.188V21.59c4.95 11.026 12.937 25.876 15.636 30.939-7.085 6.638-8.773 13.163-9.223 16.426zm27.56-56.7h-7.991V4.039h7.987v8.213z" fill="#3c3c3c" fill-rule="evenodd"/></svg>