<!-- Generated by IcoMoon.io -->
<svg version="1.1" xmlns="http://www.w3.org/2000/svg" width="32" height="32" viewBox="0 0 32 32">
<title>arrow-right</title>
<path d="M21.52 10.822c0.249-0.208 0.653-0.208 0.903 0l6.724 5.599 0.075 0.075c0.174 0.211 0.145 0.503-0.086 0.686l-6.724 5.338-0.090 0.060c-0.253 0.139-0.596 0.111-0.812-0.078l-0.072-0.075c-0.166-0.21-0.133-0.496 0.093-0.676l5.564-4.417-24.574-0.011c-0.296-0.056-0.521-0.329-0.521-0.656 0-0.368 0.284-0.667 0.635-0.667h24.202l-5.317-4.426-0.074-0.074c-0.172-0.207-0.148-0.493 0.074-0.678z"></path>
</svg>
