<!-- Generated by IcoMoon.io -->
<svg version="1.1" xmlns="http://www.w3.org/2000/svg" width="32" height="32" viewBox="0 0 32 32">
<title>Free</title>
<path d="M16 0c8.837 0 16 7.163 16 16s-7.163 16-16 16c-8.837 0-16-7.163-16-16s7.163-16 16-16zM16 0.696c-8.452 0-15.304 6.852-15.304 15.304s6.852 15.304 15.304 15.304c8.452 0 15.304-6.852 15.304-15.304s-6.852-15.304-15.304-15.304zM10.212 18.048c-0.026 0.026-0.059 0.039-0.1 0.039h-0.501c-0.037 0-0.069-0.013-0.095-0.039s-0.039-0.058-0.039-0.095v-3.623c0-0.041 0.012-0.074 0.036-0.1s0.057-0.039 0.097-0.039h2.421c0.041 0 0.074 0.013 0.1 0.039s0.039 0.059 0.039 0.1v0.401c0 0.037-0.013 0.069-0.039 0.095s-0.059 0.039-0.1 0.039h-1.781v1.046h1.67c0.041 0 0.074 0.013 0.1 0.039s0.039 0.058 0.039 0.095v0.401c0 0.037-0.013 0.069-0.039 0.095s-0.059 0.039-0.1 0.039h-1.67v1.375c0 0.037-0.013 0.069-0.039 0.095zM13.574 18.048c-0.026 0.026-0.059 0.039-0.1 0.039h-0.512c-0.037 0-0.069-0.013-0.095-0.039s-0.039-0.058-0.039-0.095v-3.623c0-0.041 0.012-0.074 0.036-0.1s0.057-0.039 0.097-0.039h1.441c0.456 0 0.813 0.106 1.071 0.317s0.387 0.512 0.387 0.902c0 0.271-0.065 0.498-0.195 0.682s-0.312 0.316-0.545 0.398l0.807 1.419c0.011 0.022 0.017 0.043 0.017 0.061 0 0.033-0.012 0.061-0.036 0.083s-0.051 0.033-0.081 0.033h-0.512c-0.059 0-0.106-0.014-0.139-0.042s-0.063-0.064-0.089-0.109l-0.712-1.319h-0.762v1.336c0 0.037-0.013 0.069-0.039 0.095zM13.613 15.983h0.774c0.223 0 0.39-0.049 0.501-0.147s0.167-0.242 0.167-0.431c0-0.189-0.056-0.335-0.167-0.437s-0.278-0.153-0.501-0.153h-0.774v1.169zM19.35 17.953c0 0.041-0.013 0.073-0.039 0.097s-0.059 0.036-0.1 0.036h-2.499c-0.037 0-0.069-0.013-0.095-0.039s-0.039-0.058-0.039-0.095v-3.623c0-0.041 0.012-0.074 0.036-0.1s0.057-0.039 0.097-0.039h2.454c0.041 0 0.074 0.013 0.1 0.039s0.039 0.059 0.039 0.1v0.373c0 0.041-0.013 0.073-0.039 0.097s-0.059 0.036-0.1 0.036h-1.825v0.974h1.703c0.041 0 0.074 0.013 0.1 0.039s0.039 0.059 0.039 0.1v0.351c0 0.041-0.013 0.073-0.039 0.097s-0.059 0.036-0.1 0.036h-1.703v1.007h1.87c0.041 0 0.074 0.012 0.1 0.036s0.039 0.057 0.039 0.097v0.378zM22.817 17.953c0 0.041-0.013 0.073-0.039 0.097s-0.059 0.036-0.1 0.036h-2.499c-0.037 0-0.069-0.013-0.095-0.039s-0.039-0.058-0.039-0.095v-3.623c0-0.041 0.012-0.074 0.036-0.1s0.057-0.039 0.097-0.039h2.454c0.041 0 0.074 0.013 0.1 0.039s0.039 0.059 0.039 0.1v0.373c0 0.041-0.013 0.073-0.039 0.097s-0.059 0.036-0.1 0.036h-1.825v0.974h1.703c0.041 0 0.074 0.013 0.1 0.039s0.039 0.059 0.039 0.1v0.351c0 0.041-0.013 0.073-0.039 0.097s-0.059 0.036-0.1 0.036h-1.703v1.007h1.87c0.041 0 0.074 0.012 0.1 0.036s0.039 0.057 0.039 0.097v0.378z"></path>
</svg>
