<svg aria-hidden="true" style="position: absolute; width: 0; height: 0; overflow: hidden;" version="1.1" xmlns="http://www.w3.org/2000/svg" xmlns:xlink="http://www.w3.org/1999/xlink">
<defs>
<symbol id="Free" viewBox="0 0 32 32">
<path d="M16 0c8.837 0 16 7.163 16 16s-7.163 16-16 16c-8.837 0-16-7.163-16-16s7.163-16 16-16zM16 0.696c-8.452 0-15.304 6.852-15.304 15.304s6.852 15.304 15.304 15.304c8.452 0 15.304-6.852 15.304-15.304s-6.852-15.304-15.304-15.304zM10.212 18.048c-0.026 0.026-0.059 0.039-0.1 0.039h-0.501c-0.037 0-0.069-0.013-0.095-0.039s-0.039-0.058-0.039-0.095v-3.623c0-0.041 0.012-0.074 0.036-0.1s0.057-0.039 0.097-0.039h2.421c0.041 0 0.074 0.013 0.1 0.039s0.039 0.059 0.039 0.1v0.401c0 0.037-0.013 0.069-0.039 0.095s-0.059 0.039-0.1 0.039h-1.781v1.046h1.67c0.041 0 0.074 0.013 0.1 0.039s0.039 0.058 0.039 0.095v0.401c0 0.037-0.013 0.069-0.039 0.095s-0.059 0.039-0.1 0.039h-1.67v1.375c0 0.037-0.013 0.069-0.039 0.095zM13.574 18.048c-0.026 0.026-0.059 0.039-0.1 0.039h-0.512c-0.037 0-0.069-0.013-0.095-0.039s-0.039-0.058-0.039-0.095v-3.623c0-0.041 0.012-0.074 0.036-0.1s0.057-0.039 0.097-0.039h1.441c0.456 0 0.813 0.106 1.071 0.317s0.387 0.512 0.387 0.902c0 0.271-0.065 0.498-0.195 0.682s-0.312 0.316-0.545 0.398l0.807 1.419c0.011 0.022 0.017 0.043 0.017 0.061 0 0.033-0.012 0.061-0.036 0.083s-0.051 0.033-0.081 0.033h-0.512c-0.059 0-0.106-0.014-0.139-0.042s-0.063-0.064-0.089-0.109l-0.712-1.319h-0.762v1.336c0 0.037-0.013 0.069-0.039 0.095zM13.613 15.983h0.774c0.223 0 0.39-0.049 0.501-0.147s0.167-0.242 0.167-0.431c0-0.189-0.056-0.335-0.167-0.437s-0.278-0.153-0.501-0.153h-0.774v1.169zM19.35 17.953c0 0.041-0.013 0.073-0.039 0.097s-0.059 0.036-0.1 0.036h-2.499c-0.037 0-0.069-0.013-0.095-0.039s-0.039-0.058-0.039-0.095v-3.623c0-0.041 0.012-0.074 0.036-0.1s0.057-0.039 0.097-0.039h2.454c0.041 0 0.074 0.013 0.1 0.039s0.039 0.059 0.039 0.1v0.373c0 0.041-0.013 0.073-0.039 0.097s-0.059 0.036-0.1 0.036h-1.825v0.974h1.703c0.041 0 0.074 0.013 0.1 0.039s0.039 0.059 0.039 0.1v0.351c0 0.041-0.013 0.073-0.039 0.097s-0.059 0.036-0.1 0.036h-1.703v1.007h1.87c0.041 0 0.074 0.012 0.1 0.036s0.039 0.057 0.039 0.097v0.378zM22.817 17.953c0 0.041-0.013 0.073-0.039 0.097s-0.059 0.036-0.1 0.036h-2.499c-0.037 0-0.069-0.013-0.095-0.039s-0.039-0.058-0.039-0.095v-3.623c0-0.041 0.012-0.074 0.036-0.1s0.057-0.039 0.097-0.039h2.454c0.041 0 0.074 0.013 0.1 0.039s0.039 0.059 0.039 0.1v0.373c0 0.041-0.013 0.073-0.039 0.097s-0.059 0.036-0.1 0.036h-1.825v0.974h1.703c0.041 0 0.074 0.013 0.1 0.039s0.039 0.059 0.039 0.1v0.351c0 0.041-0.013 0.073-0.039 0.097s-0.059 0.036-0.1 0.036h-1.703v1.007h1.87c0.041 0 0.074 0.012 0.1 0.036s0.039 0.057 0.039 0.097v0.378z"></path>
</symbol>
<symbol id="Photo" viewBox="0 0 32 32">
<path d="M16 0c8.837 0 16 7.163 16 16s-7.163 16-16 16c-8.837 0-16-7.163-16-16s7.163-16 16-16zM16 0.696c-8.452 0-15.304 6.852-15.304 15.304s6.852 15.304 15.304 15.304c8.452 0 15.304-6.852 15.304-15.304s-6.852-15.304-15.304-15.304zM21.844 12.648c-0.25-0.259-0.595-0.412-0.988-0.412h-1.976v-0.024c0-0.294-0.119-0.576-0.321-0.765-0.202-0.2-0.476-0.318-0.774-0.318h-3.571c-0.309 0-0.583 0.118-0.786 0.318s-0.321 0.471-0.321 0.765v0.024h-1.964c-0.393 0-0.738 0.153-0.988 0.412-0.25 0.247-0.417 0.6-0.417 0.976v5.858c0 0.388 0.155 0.729 0.417 0.976 0.25 0.247 0.607 0.412 0.988 0.412h9.713c0.393 0 0.738-0.153 0.988-0.412 0.25-0.247 0.417-0.6 0.417-0.976v-5.858c0-0.388-0.155-0.729-0.417-0.976zM21.642 19.482h-0.012c0 0.212-0.083 0.4-0.226 0.541s-0.333 0.224-0.548 0.224h-9.713c-0.214 0-0.405-0.082-0.548-0.224s-0.226-0.329-0.226-0.541v-5.858c0-0.212 0.083-0.4 0.226-0.541s0.333-0.223 0.548-0.223h2.297c0.178 0 0.321-0.141 0.321-0.318v-0.341c0-0.129 0.048-0.247 0.131-0.329s0.202-0.129 0.333-0.129h3.559c0.131 0 0.25 0.047 0.333 0.129s0.131 0.2 0.131 0.329v0.341c0 0.176 0.143 0.318 0.321 0.318h2.297c0.214 0 0.405 0.082 0.548 0.223s0.226 0.329 0.226 0.541v5.858zM16 13.913c-0.769 0-1.47 0.317-1.968 0.814-0.509 0.509-0.814 1.199-0.814 1.968s0.317 1.47 0.814 1.968c0.509 0.509 1.199 0.814 1.968 0.814s1.47-0.317 1.968-0.814c0.509-0.509 0.814-1.199 0.814-1.968s-0.317-1.47-0.814-1.968c-0.498-0.498-1.199-0.814-1.968-0.814zM17.538 18.245c-0.396 0.385-0.939 0.633-1.538 0.633s-1.142-0.249-1.538-0.633c-0.396-0.396-0.633-0.939-0.633-1.538s0.249-1.142 0.633-1.538c0.396-0.396 0.939-0.633 1.538-0.633s1.142 0.249 1.538 0.633c0.396 0.396 0.633 0.939 0.633 1.538 0.011 0.599-0.238 1.142-0.633 1.538zM20.174 14.609c0.384 0 0.696-0.311 0.696-0.696s-0.311-0.696-0.696-0.696c-0.384 0-0.696 0.311-0.696 0.696s0.311 0.696 0.696 0.696z"></path>
</symbol>
<symbol id="Stars" viewBox="0 0 32 32">
<path d="M16 0c8.837 0 16 7.163 16 16s-7.163 16-16 16c-8.837 0-16-7.163-16-16s7.163-16 16-16zM16 0.696c-8.452 0-15.304 6.852-15.304 15.304s6.852 15.304 15.304 15.304c8.452 0 15.304-6.852 15.304-15.304s-6.852-15.304-15.304-15.304zM22.571 8.666c0 3.086 2.573 3.184 2.859 3.184 0.167 0 0.31 0.147 0.31 0.318 0 0.196-0.143 0.343-0.31 0.343h-0.024c-0.286 0-2.859 0.098-2.859 3.184 0 0.196-0.143 0.343-0.286 0.294-0.167 0-0.31-0.147-0.31-0.318 0-3.086-2.549-3.184-2.859-3.184-0.167 0-0.31-0.147-0.31-0.318s0.119-0.294 0.286-0.318h0.024c0.286 0 2.859-0.098 2.859-3.184 0-0.171 0.143-0.318 0.31-0.318s0.31 0.147 0.31 0.318zM20.522 12.194c0.643 0.294 1.31 0.808 1.715 1.739 0.381-0.882 1.024-1.445 1.715-1.739-0.643-0.294-1.334-0.808-1.715-1.739-0.381 0.882-1.024 1.445-1.715 1.739zM19.853 17.402c0.096 0.025 0.215 0.075 0.263 0.175 0.072 0.1 0.072 0.225 0.024 0.325-0.072 0.1-0.168 0.175-0.287 0.175-0.551 0-5.268 0.225-5.268 5.947 0 0.175-0.144 0.325-0.311 0.325s-0.311-0.15-0.311-0.325c0-5.747-4.717-5.947-5.268-5.947h-0.024c-0.12 0-0.239-0.075-0.287-0.175s-0.048-0.225 0-0.325c0.007-0.008 0.015-0.017 0.022-0.028 0.018-0.025 0.040-0.054 0.073-0.072 0.048-0.050 0.12-0.075 0.192-0.075 0.527 0 5.268-0.2 5.268-5.947 0-0.175 0.144-0.325 0.311-0.325s0.311 0.15 0.311 0.325c0 5.747 4.741 5.947 5.292 5.947zM10.515 17.727c1.341 0.45 3.041 1.474 3.735 3.848 0.694-2.374 2.395-3.398 3.735-3.848-1.341-0.45-3.041-1.474-3.735-3.848-0.694 2.374-2.394 3.398-3.735 3.848z"></path>
</symbol>
</defs>
</svg>
