<!-- Generated by IcoMoon.io -->
<svg version="1.1" xmlns="http://www.w3.org/2000/svg" width="32" height="32" viewBox="0 0 32 32">
<title>Phone</title>
<path d="M22.667 17.791l-4.695 2.352c-0.295 0.17-0.658 0.17-0.952 0-2.012-1.392-3.755-3.137-5.143-5.152-0.17-0.295-0.17-0.658 0-0.952l2.333-4.705-3.333-6.667h-8.21v0.952c0 14.202 11.513 25.714 25.714 25.714h0.952v-8.209l-6.667-3.333zM27.429 27.429c-12.416-0.487-22.37-10.441-22.857-22.857h5.124l2.381 4.762-1.905 3.81c-0.456 0.916-0.387 2.006 0.181 2.857 1.515 2.236 3.43 4.173 5.648 5.714 0.851 0.568 1.941 0.637 2.857 0.181l3.809-1.905 4.762 2.381v5.057z"></path>
</svg>
