<!-- Generated by IcoMoon.io -->
<svg version="1.1" xmlns="http://www.w3.org/2000/svg" width="32" height="32" viewBox="0 0 32 32">
<title>rabish</title>
<path d="M15.333 4.889c-0.613 0-1.111 0.498-1.111 1.111v1.111h4.444v-1.111c0-0.613-0.498-1.111-1.111-1.111h-2.222zM20.889 7.111h5.555c0.613 0 1.111 0.498 1.111 1.111s-0.498 1.111-1.111 1.111h-0.117l-1.893 17.034c-0.187 1.689-1.613 2.966-3.312 2.966h-9.356c-1.699 0-3.126-1.277-3.313-2.966l-1.892-17.034h-0.117c-0.613 0-1.111-0.498-1.111-1.111s0.498-1.111 1.111-1.111h5.556v-1.111c0-1.841 1.492-3.333 3.333-3.333h2.222c1.841 0 3.333 1.492 3.333 3.333v1.111zM24.092 9.333h-15.296l1.866 16.789c0.063 0.563 0.539 0.989 1.104 0.989h9.356c0.565 0 1.041-0.425 1.104-0.989l1.866-16.789zM14.222 12.667c-0.613 0-1.111 0.498-1.111 1.111v8.889c0 0.613 0.498 1.111 1.111 1.111s1.111-0.498 1.111-1.111v-8.889c0-0.613-0.498-1.111-1.111-1.111zM18.667 12.667c-0.613 0-1.111 0.498-1.111 1.111v8.889c0 0.613 0.498 1.111 1.111 1.111s1.111-0.498 1.111-1.111v-8.889c0-0.613-0.498-1.111-1.111-1.111z"></path>
</svg>
