<!-- Generated by IcoMoon.io -->
<svg version="1.1" xmlns="http://www.w3.org/2000/svg" width="32" height="32" viewBox="0 0 32 32">
<title>Search</title>
<path d="M13.64 24.613c-6.060 0-10.973-4.913-10.973-10.973s4.913-10.973 10.973-10.973c6.060 0 10.973 4.913 10.973 10.973 0 2.621-0.919 5.028-2.453 6.915l8.174 8.174c0.443 0.443 0.443 1.162 0 1.605s-1.162 0.443-1.605 0l-8.174-8.174c-1.887 1.533-4.294 2.453-6.915 2.453zM13.64 22.342c4.806 0 8.703-3.896 8.703-8.703s-3.896-8.703-8.703-8.703c-4.806 0-8.703 3.896-8.703 8.703s3.896 8.703 8.703 8.703z"></path>
</svg>
