<svg aria-hidden="true" style="position: absolute; width: 0; height: 0; overflow: hidden;" version="1.1" xmlns="http://www.w3.org/2000/svg" xmlns:xlink="http://www.w3.org/1999/xlink">
<defs>
<symbol id="Cart" viewBox="0 0 32 32">
<path d="M7.582 5.524l-0.442-1.812c-0.344-1.398-1.578-2.378-2.992-2.378h-1.481v2.095h1.481c0.484-0.014 0.912 0.317 1.028 0.796l3.661 15.17 0.38 1.561c0.347 1.409 1.597 2.393 3.023 2.378h14.077v-2.095h-14.077c-0.484 0.014-0.912-0.317-1.028-0.796l-0.123-0.524 15.229-3.656c1.126-0.267 2.011-1.152 2.293-2.294l2.057-8.444h-23.085zM26.656 13.465c-0.095 0.383-0.393 0.678-0.771 0.765l-15.27 3.656-2.519-10.267h19.99l-1.429 5.846zM7.808 27.524c0-1.736 1.381-3.143 3.085-3.143s3.085 1.407 3.085 3.143c0 1.736-1.381 3.143-3.085 3.143s-3.085-1.407-3.085-3.143zM9.865 27.524c0 0.579 0.46 1.048 1.028 1.048s1.028-0.469 1.028-1.048c0-0.579-0.46-1.048-1.028-1.048s-1.028 0.469-1.028 1.048zM20.382 26.321c0.477-1.174 1.602-1.94 2.85-1.94 1.704 0 3.085 1.407 3.085 3.143 0 1.271-0.752 2.417-1.904 2.904s-2.48 0.218-3.362-0.681c-0.882-0.899-1.146-2.251-0.669-3.425zM22.204 27.524c0 0.579 0.46 1.048 1.028 1.048s1.028-0.469 1.028-1.048-0.46-1.048-1.028-1.048c-0.568 0-1.028 0.469-1.028 1.048z"></path>
</symbol>
<symbol id="rabish" viewBox="0 0 32 32">
<path d="M15.333 4.889c-0.613 0-1.111 0.498-1.111 1.111v1.111h4.444v-1.111c0-0.613-0.498-1.111-1.111-1.111h-2.222zM20.889 7.111h5.555c0.613 0 1.111 0.498 1.111 1.111s-0.498 1.111-1.111 1.111h-0.117l-1.893 17.034c-0.187 1.689-1.613 2.966-3.312 2.966h-9.356c-1.699 0-3.126-1.277-3.313-2.966l-1.892-17.034h-0.117c-0.613 0-1.111-0.498-1.111-1.111s0.498-1.111 1.111-1.111h5.556v-1.111c0-1.841 1.492-3.333 3.333-3.333h2.222c1.841 0 3.333 1.492 3.333 3.333v1.111zM24.092 9.333h-15.296l1.866 16.789c0.063 0.563 0.539 0.989 1.104 0.989h9.356c0.565 0 1.041-0.425 1.104-0.989l1.866-16.789zM14.222 12.667c-0.613 0-1.111 0.498-1.111 1.111v8.889c0 0.613 0.498 1.111 1.111 1.111s1.111-0.498 1.111-1.111v-8.889c0-0.613-0.498-1.111-1.111-1.111zM18.667 12.667c-0.613 0-1.111 0.498-1.111 1.111v8.889c0 0.613 0.498 1.111 1.111 1.111s1.111-0.498 1.111-1.111v-8.889c0-0.613-0.498-1.111-1.111-1.111z"></path>
</symbol>
<symbol id="Filter" viewBox="0 0 32 32">
<path d="M3.619 8.447h1.721c0.423 1.503 1.794 2.542 3.356 2.542s2.933-1.039 3.356-2.542h16.33c0.526 0 0.952-0.426 0.952-0.952s-0.426-0.952-0.952-0.952h-16.324c-0.423-1.503-1.794-2.542-3.356-2.542s-2.933 1.039-3.356 2.542h-1.727c-0.526 0-0.952 0.426-0.952 0.952s0.426 0.952 0.952 0.952zM8.698 5.907c0.877 0 1.587 0.711 1.587 1.587s-0.711 1.587-1.587 1.587c-0.877 0-1.587-0.711-1.587-1.587s0.711-1.587 1.587-1.587zM28.381 15.431h-9.13c-0.52-1.343-1.811-2.228-3.251-2.228s-2.731 0.885-3.251 2.228h-9.13c-0.526 0-0.952 0.426-0.952 0.952s0.426 0.952 0.952 0.952h8.952c0.311 1.65 1.752 2.846 3.432 2.846s3.121-1.195 3.432-2.846h8.946c0.526 0 0.952-0.426 0.952-0.952s-0.426-0.952-0.952-0.952zM16 18.288c-0.877 0-1.587-0.711-1.587-1.587s0.711-1.587 1.587-1.587c0.877 0 1.587 0.711 1.587 1.587s-0.711 1.587-1.587 1.587zM26.66 24.32h1.721c0.526 0 0.952 0.426 0.952 0.952s-0.426 0.952-0.952 0.952h-1.727c-0.423 1.503-1.794 2.542-3.356 2.542s-2.933-1.039-3.356-2.542h-16.324c-0.526 0-0.952-0.426-0.952-0.952s0.426-0.952 0.952-0.952h16.33c0.423-1.503 1.794-2.542 3.356-2.542s2.933 1.039 3.355 2.542zM21.714 25.272c0 0.877 0.711 1.587 1.587 1.587s1.587-0.711 1.587-1.587c0-0.877-0.711-1.587-1.587-1.587s-1.587 0.711-1.587 1.587z"></path>
</symbol>
<symbol id="Heart" viewBox="0 0 32 32">
<path d="M15.932 28l-11.050-10.998c-2.954-2.99-2.954-7.79 0-10.781 1.422-1.422 3.354-2.222 5.368-2.222s3.946 0.799 5.369 2.222l0.313 0.321 0.313-0.321c1.422-1.422 3.354-2.222 5.369-2.222s3.946 0.799 5.368 2.222c2.949 2.992 2.949 7.788 0 10.781l-11.050 10.998zM10.246 5.881c-1.513-0.005-2.965 0.598-4.028 1.672-2.219 2.253-2.219 5.863 0 8.116l9.713 9.666 9.713-9.666c2.219-2.253 2.219-5.863 0-8.116-1.067-1.064-2.514-1.663-4.023-1.663s-2.956 0.598-4.023 1.663l-1.668 1.644-1.658-1.635c-1.065-1.073-2.514-1.678-4.028-1.682z"></path>
</symbol>
<symbol id="Phone" viewBox="0 0 32 32">
<path d="M22.667 17.791l-4.695 2.352c-0.295 0.17-0.658 0.17-0.952 0-2.012-1.392-3.755-3.137-5.143-5.152-0.17-0.295-0.17-0.658 0-0.952l2.333-4.705-3.333-6.667h-8.21v0.952c0 14.202 11.513 25.714 25.714 25.714h0.952v-8.209l-6.667-3.333zM27.429 27.429c-12.416-0.487-22.37-10.441-22.857-22.857h5.124l2.381 4.762-1.905 3.81c-0.456 0.916-0.387 2.006 0.181 2.857 1.515 2.236 3.43 4.173 5.648 5.714 0.851 0.568 1.941 0.637 2.857 0.181l3.809-1.905 4.762 2.381v5.057z"></path>
</symbol>
<symbol id="Search" viewBox="0 0 32 32">
<path d="M13.64 24.613c-6.060 0-10.973-4.913-10.973-10.973s4.913-10.973 10.973-10.973c6.060 0 10.973 4.913 10.973 10.973 0 2.621-0.919 5.028-2.453 6.915l8.174 8.174c0.443 0.443 0.443 1.162 0 1.605s-1.162 0.443-1.605 0l-8.174-8.174c-1.887 1.533-4.294 2.453-6.915 2.453zM13.64 22.342c4.806 0 8.703-3.896 8.703-8.703s-3.896-8.703-8.703-8.703c-4.806 0-8.703 3.896-8.703 8.703s3.896 8.703 8.703 8.703z"></path>
</symbol>
</defs>
</svg>
