<!-- Generated by IcoMoon.io -->
<svg version="1.1" xmlns="http://www.w3.org/2000/svg" width="32" height="32" viewBox="0 0 32 32">
<title>Cart</title>
<path d="M7.582 5.524l-0.442-1.812c-0.344-1.398-1.578-2.378-2.992-2.378h-1.481v2.095h1.481c0.484-0.014 0.912 0.317 1.028 0.796l3.661 15.17 0.38 1.561c0.347 1.409 1.597 2.393 3.023 2.378h14.077v-2.095h-14.077c-0.484 0.014-0.912-0.317-1.028-0.796l-0.123-0.524 15.229-3.656c1.126-0.267 2.011-1.152 2.293-2.294l2.057-8.444h-23.085zM26.656 13.465c-0.095 0.383-0.393 0.678-0.771 0.765l-15.27 3.656-2.519-10.267h19.99l-1.429 5.846zM7.808 27.524c0-1.736 1.381-3.143 3.085-3.143s3.085 1.407 3.085 3.143c0 1.736-1.381 3.143-3.085 3.143s-3.085-1.407-3.085-3.143zM9.865 27.524c0 0.579 0.46 1.048 1.028 1.048s1.028-0.469 1.028-1.048c0-0.579-0.46-1.048-1.028-1.048s-1.028 0.469-1.028 1.048zM20.382 26.321c0.477-1.174 1.602-1.94 2.85-1.94 1.704 0 3.085 1.407 3.085 3.143 0 1.271-0.752 2.417-1.904 2.904s-2.48 0.218-3.362-0.681c-0.882-0.899-1.146-2.251-0.669-3.425zM22.204 27.524c0 0.579 0.46 1.048 1.028 1.048s1.028-0.469 1.028-1.048-0.46-1.048-1.028-1.048c-0.568 0-1.028 0.469-1.028 1.048z"></path>
</svg>
