<!-- Generated by IcoMoon.io -->
<svg version="1.1" xmlns="http://www.w3.org/2000/svg" width="32" height="32" viewBox="0 0 32 32">
<title>Filter</title>
<path d="M3.619 8.447h1.721c0.423 1.503 1.794 2.542 3.356 2.542s2.933-1.039 3.356-2.542h16.33c0.526 0 0.952-0.426 0.952-0.952s-0.426-0.952-0.952-0.952h-16.324c-0.423-1.503-1.794-2.542-3.356-2.542s-2.933 1.039-3.356 2.542h-1.727c-0.526 0-0.952 0.426-0.952 0.952s0.426 0.952 0.952 0.952zM8.698 5.907c0.877 0 1.587 0.711 1.587 1.587s-0.711 1.587-1.587 1.587c-0.877 0-1.587-0.711-1.587-1.587s0.711-1.587 1.587-1.587zM28.381 15.431h-9.13c-0.52-1.343-1.811-2.228-3.251-2.228s-2.731 0.885-3.251 2.228h-9.13c-0.526 0-0.952 0.426-0.952 0.952s0.426 0.952 0.952 0.952h8.952c0.311 1.65 1.752 2.846 3.432 2.846s3.121-1.195 3.432-2.846h8.946c0.526 0 0.952-0.426 0.952-0.952s-0.426-0.952-0.952-0.952zM16 18.288c-0.877 0-1.587-0.711-1.587-1.587s0.711-1.587 1.587-1.587c0.877 0 1.587 0.711 1.587 1.587s-0.711 1.587-1.587 1.587zM26.66 24.32h1.721c0.526 0 0.952 0.426 0.952 0.952s-0.426 0.952-0.952 0.952h-1.727c-0.423 1.503-1.794 2.542-3.356 2.542s-2.933-1.039-3.356-2.542h-16.324c-0.526 0-0.952-0.426-0.952-0.952s0.426-0.952 0.952-0.952h16.33c0.423-1.503 1.794-2.542 3.356-2.542s2.933 1.039 3.355 2.542zM21.714 25.272c0 0.877 0.711 1.587 1.587 1.587s1.587-0.711 1.587-1.587c0-0.877-0.711-1.587-1.587-1.587s-1.587 0.711-1.587 1.587z"></path>
</svg>
