<!-- Generated by IcoMoon.io -->
<svg version="1.1" xmlns="http://www.w3.org/2000/svg" width="32" height="32" viewBox="0 0 32 32">
<title>Heart</title>
<path d="M15.932 28l-11.050-10.998c-2.954-2.99-2.954-7.79 0-10.781 1.422-1.422 3.354-2.222 5.368-2.222s3.946 0.799 5.369 2.222l0.313 0.321 0.313-0.321c1.422-1.422 3.354-2.222 5.369-2.222s3.946 0.799 5.368 2.222c2.949 2.992 2.949 7.788 0 10.781l-11.050 10.998zM10.246 5.881c-1.513-0.005-2.965 0.598-4.028 1.672-2.219 2.253-2.219 5.863 0 8.116l9.713 9.666 9.713-9.666c2.219-2.253 2.219-5.863 0-8.116-1.067-1.064-2.514-1.663-4.023-1.663s-2.956 0.598-4.023 1.663l-1.668 1.644-1.658-1.635c-1.065-1.073-2.514-1.678-4.028-1.682z"></path>
</svg>
