<!-- Generated by IcoMoon.io -->
<svg version="1.1" xmlns="http://www.w3.org/2000/svg" width="179" height="24" viewBox="0 0 179 24">
<title>cassiopeia</title>
<path d="M10.432 1.396c1.28 0 2.389 0.16 3.328 0.48 0.939 0.299 1.749 0.725 2.432 1.28 1.344 1.088 2.219 2.613 2.624 4.576l-4.032 0.736c-0.341-1.088-0.875-1.963-1.6-2.624-0.704-0.683-1.589-1.024-2.656-1.024-1.451 0-2.624 0.608-3.52 1.824-0.96 1.323-1.44 3.157-1.44 5.504 0 2.325 0.427 4.149 1.28 5.472 0.853 1.301 2.016 1.952 3.488 1.952s2.581-0.352 3.328-1.056c0.747-0.725 1.12-1.653 1.12-2.784h4.064c0 2.325-0.747 4.128-2.24 5.408-1.472 1.259-3.499 1.888-6.080 1.888-2.752 0-4.939-0.96-6.56-2.88-1.643-1.963-2.464-4.629-2.464-8 0-3.413 0.843-6.080 2.528-8 1.621-1.835 3.755-2.752 6.4-2.752z"></path>
<path d="M28.057 1.812h4.736l6.816 20.768h-4l-1.44-4.48h-7.712l-1.472 4.48h-4l7.072-20.768zM27.417 15.252h5.824l-2.88-8.928-2.944 8.928z"></path>
<path d="M54.2 7.54c-0.341-1.813-1.621-2.72-3.84-2.72-1.088 0-1.941 0.224-2.56 0.672-0.597 0.427-0.896 0.949-0.896 1.568s0.192 1.109 0.576 1.472c0.405 0.341 1.024 0.661 1.856 0.96l4.512 1.76c1.536 0.597 2.72 1.355 3.552 2.272 0.832 0.896 1.248 2.027 1.248 3.392 0 1.877-0.704 3.371-2.112 4.48-1.408 1.088-3.413 1.632-6.016 1.632-2.304 0-4.171-0.565-5.6-1.696-1.6-1.237-2.443-2.987-2.528-5.248h3.744c0 1.707 0.885 2.784 2.656 3.232 0.533 0.149 1.237 0.224 2.112 0.224s1.685-0.213 2.432-0.64c0.747-0.448 1.12-1.035 1.12-1.76 0-0.747-0.203-1.312-0.608-1.696-0.405-0.405-1.067-0.779-1.984-1.12l-4.128-1.632c-1.6-0.619-2.827-1.344-3.68-2.176s-1.28-1.984-1.28-3.456c0-1.728 0.672-3.093 2.016-4.096 1.365-1.045 3.211-1.568 5.536-1.568 2.347 0 4.149 0.544 5.408 1.632 1.28 1.067 2.016 2.571 2.208 4.512h-3.744z"></path>
<path d="M74.607 7.54c-0.341-1.813-1.621-2.72-3.84-2.72-1.088 0-1.941 0.224-2.56 0.672-0.597 0.427-0.896 0.949-0.896 1.568s0.192 1.109 0.576 1.472c0.405 0.341 1.024 0.661 1.856 0.96l4.512 1.76c1.536 0.597 2.72 1.355 3.552 2.272 0.832 0.896 1.248 2.027 1.248 3.392 0 1.877-0.704 3.371-2.112 4.48-1.408 1.088-3.413 1.632-6.016 1.632-2.304 0-4.171-0.565-5.6-1.696-1.6-1.237-2.443-2.987-2.528-5.248h3.744c0 1.707 0.885 2.784 2.656 3.232 0.533 0.149 1.237 0.224 2.112 0.224s1.685-0.213 2.432-0.64c0.747-0.448 1.12-1.035 1.12-1.76 0-0.747-0.203-1.312-0.608-1.696-0.405-0.405-1.067-0.779-1.984-1.12l-4.128-1.632c-1.6-0.619-2.827-1.344-3.68-2.176s-1.28-1.984-1.28-3.456c0-1.728 0.672-3.093 2.016-4.096 1.365-1.045 3.211-1.568 5.536-1.568 2.347 0 4.149 0.544 5.408 1.632 1.28 1.067 2.016 2.571 2.208 4.512h-3.744z"></path>
<path d="M84.101 1.812h3.776v20.768h-3.776v-20.768z"></path>
<path d="M101.788 1.396c1.387 0 2.656 0.235 3.808 0.704 1.152 0.448 2.144 1.12 2.976 2.016 1.749 1.877 2.624 4.565 2.624 8.064 0 3.52-0.875 6.24-2.624 8.16-1.664 1.792-3.936 2.688-6.816 2.688-2.859 0-5.12-0.917-6.784-2.752-1.749-1.899-2.624-4.597-2.624-8.096 0-3.541 0.875-6.251 2.624-8.128 1.643-1.771 3.915-2.656 6.816-2.656zM107.292 12.244c0-2.389-0.501-4.224-1.504-5.504-0.981-1.301-2.315-1.952-4-1.952s-3.029 0.651-4.032 1.952c-1.003 1.28-1.504 3.115-1.504 5.504 0 2.368 0.501 4.192 1.504 5.472 1.003 1.259 2.347 1.888 4.032 1.888s3.019-0.629 4-1.888c1.003-1.28 1.504-3.104 1.504-5.472z"></path>
<path d="M122.895 1.812c2.347 0 4.171 0.576 5.472 1.728 1.323 1.131 1.984 2.763 1.984 4.896 0 2.112-0.661 3.744-1.984 4.896-1.301 1.131-3.125 1.696-5.472 1.696h-3.52v7.552h-3.808v-20.768h7.328zM122.895 11.732c1.173 0 2.059-0.309 2.656-0.928s0.896-1.408 0.896-2.368c0-0.981-0.299-1.781-0.896-2.4-0.597-0.64-1.483-0.96-2.656-0.96h-3.52v6.656h3.52z"></path>
<path d="M134.225 1.812h13.376v3.264h-9.6v5.472h8.992v3.264h-8.992v5.472h9.6v3.296h-13.376v-20.768z"></path>
<path d="M153.007 1.812h3.776v20.768h-3.776v-20.768z"></path>
<path d="M167.526 1.812h4.736l6.816 20.768h-4l-1.44-4.48h-7.712l-1.472 4.48h-4l7.072-20.768zM166.886 15.252h5.824l-2.88-8.928-2.944 8.928z"></path>
</svg>
