<!-- Generated by IcoMoon.io -->
<svg version="1.1" xmlns="http://www.w3.org/2000/svg" width="32" height="32" viewBox="0 0 32 32">
<title>plus-purple</title>
<path fill="#f0f0f5" d="M16 32c8.837 0 16-7.163 16-16s-7.163-16-16-16c-8.837 0-16 7.163-16 16s7.163 16 16 16z"></path>
<path fill="#595cff" d="M15.733 22.667c0.589 0 1.067-0.478 1.067-1.067v-4.63h4.63c0.536 0 0.97-0.434 0.97-0.97s-0.434-0.97-0.97-0.97h-4.63v-4.63c0-0.589-0.478-1.067-1.067-1.067s-1.067 0.478-1.067 1.067v4.63h-4.63c-0.536 0-0.97 0.434-0.97 0.97s0.434 0.97 0.97 0.97h4.63v4.63c0 0.589 0.478 1.067 1.067 1.067z"></path>
</svg>
