<svg aria-hidden="true" style="position: absolute; width: 0; height: 0; overflow: hidden;" version="1.1" xmlns="http://www.w3.org/2000/svg" xmlns:xlink="http://www.w3.org/1999/xlink">
<defs>
<symbol id="plus-black" viewBox="0 0 32 32">
<path d="M15.68 24c0.707 0 1.28-0.573 1.28-1.28v-5.556h5.556c0.643 0 1.164-0.521 1.164-1.164s-0.521-1.164-1.164-1.164h-5.556v-5.556c0-0.707-0.573-1.28-1.28-1.28s-1.28 0.573-1.28 1.28v5.556h-5.556c-0.643 0-1.164 0.521-1.164 1.164s0.521 1.164 1.164 1.164h5.556v5.556c0 0.707 0.573 1.28 1.28 1.28z"></path>
</symbol>
<symbol id="minus-black" viewBox="0 0 32 32">
<path d="M7.68 16c0-0.707 0.573-1.28 1.28-1.28h13.44c0.707 0 1.28 0.573 1.28 1.28s-0.573 1.28-1.28 1.28h-13.44c-0.707 0-1.28-0.573-1.28-1.28z"></path>
</symbol>
<symbol id="Style-purple" viewBox="0 0 32 32">
<path fill="#f0f0f5" style="fill: var(--color1, #f0f0f5)" d="M16 32c8.837 0 16-7.163 16-16s-7.163-16-16-16c-8.837 0-16 7.163-16 16s7.163 16 16 16z"></path>
<path fill="#595cff" style="fill: var(--color2, #595cff)" d="M9.067 16c0-0.589 0.478-1.067 1.067-1.067h11.2c0.589 0 1.067 0.478 1.067 1.067s-0.478 1.067-1.067 1.067h-11.2c-0.589 0-1.067-0.478-1.067-1.067z"></path>
</symbol>
<symbol id="plus-purple" viewBox="0 0 32 32">
<path fill="#f0f0f5" style="fill: var(--color1, #f0f0f5)" d="M16 32c8.837 0 16-7.163 16-16s-7.163-16-16-16c-8.837 0-16 7.163-16 16s7.163 16 16 16z"></path>
<path fill="#595cff" style="fill: var(--color2, #595cff)" d="M15.733 22.667c0.589 0 1.067-0.478 1.067-1.067v-4.63h4.63c0.536 0 0.97-0.434 0.97-0.97s-0.434-0.97-0.97-0.97h-4.63v-4.63c0-0.589-0.478-1.067-1.067-1.067s-1.067 0.478-1.067 1.067v4.63h-4.63c-0.536 0-0.97 0.434-0.97 0.97s0.434 0.97 0.97 0.97h4.63v4.63c0 0.589 0.478 1.067 1.067 1.067z"></path>
</symbol>
</defs>
</svg>
