<!-- Generated by IcoMoon.io -->
<svg version="1.1" xmlns="http://www.w3.org/2000/svg" width="32" height="32" viewBox="0 0 32 32">
<title>arrow-left</title>
<path d="M10.48 10.822c-0.249-0.208-0.653-0.208-0.902 0l-6.724 5.599-0.075 0.075c-0.174 0.211-0.145 0.503 0.086 0.686l6.724 5.338 0.090 0.060c0.253 0.139 0.596 0.111 0.812-0.078l0.072-0.075c0.166-0.21 0.134-0.496-0.093-0.676l-5.564-4.417 25.241-0.011c0.296-0.056 0.521-0.329 0.521-0.656 0-0.368-0.284-0.667-0.635-0.667h-24.869l5.317-4.426 0.074-0.074c0.172-0.207 0.148-0.493-0.074-0.678z"></path>
</svg>
