<svg aria-hidden="true" style="position: absolute; width: 0; height: 0; overflow: hidden;" version="1.1" xmlns="http://www.w3.org/2000/svg" xmlns:xlink="http://www.w3.org/1999/xlink">
<defs>
<symbol id="arrow-left" viewBox="0 0 32 32">
<path d="M10.48 10.822c-0.249-0.208-0.653-0.208-0.902 0l-6.724 5.599-0.075 0.075c-0.174 0.211-0.145 0.503 0.086 0.686l6.724 5.338 0.090 0.060c0.253 0.139 0.596 0.111 0.812-0.078l0.072-0.075c0.166-0.21 0.134-0.496-0.093-0.676l-5.564-4.417 25.241-0.011c0.296-0.056 0.521-0.329 0.521-0.656 0-0.368-0.284-0.667-0.635-0.667h-24.869l5.317-4.426 0.074-0.074c0.172-0.207 0.148-0.493-0.074-0.678z"></path>
</symbol>
<symbol id="arrow-right" viewBox="0 0 32 32">
<path d="M21.52 10.822c0.249-0.208 0.653-0.208 0.903 0l6.724 5.599 0.075 0.075c0.174 0.211 0.145 0.503-0.086 0.686l-6.724 5.338-0.090 0.060c-0.253 0.139-0.596 0.111-0.812-0.078l-0.072-0.075c-0.166-0.21-0.133-0.496 0.093-0.676l5.564-4.417-24.574-0.011c-0.296-0.056-0.521-0.329-0.521-0.656 0-0.368 0.284-0.667 0.635-0.667h24.202l-5.317-4.426-0.074-0.074c-0.172-0.207-0.148-0.493 0.074-0.678z"></path>
</symbol>
<symbol id="pointer-left" viewBox="0 0 32 32">
<path d="M22.878 0.353c0.531-0.483 1.358-0.469 1.871 0.032s0.528 1.309 0.033 1.827l-14.368 14.033 14.368 13.542c0.494 0.518 0.48 1.326-0.033 1.827s-1.34 0.515-1.871 0.032l-16.020-15.401 16.020-15.893z"></path>
</symbol>
<symbol id="pointer-right" viewBox="0 0 32 32">
<path d="M9.122 0.353c-0.531-0.483-1.358-0.469-1.871 0.032s-0.528 1.309-0.033 1.827l14.368 14.033-14.368 13.542c-0.495 0.518-0.48 1.326 0.033 1.827s1.34 0.515 1.871 0.032l16.020-15.401-16.020-15.893z"></path>
</symbol>
<symbol id="pointer-down" viewBox="0 0 32 32">
<path d="M27.253 7.252c0.781-0.781 2.047-0.781 2.828 0s0.781 2.047 0 2.828l-13.333 13.333c-0.781 0.781-2.047 0.781-2.828 0l-13.333-13.333c-0.781-0.781-0.781-2.047 0-2.828s2.047-0.781 2.828 0l11.919 11.919 11.919-11.919z"></path>
</symbol>
<symbol id="pointer-small-left" viewBox="0 0 32 32">
<path d="M23.414 3.414c0.781-0.781 0.781-2.047 0-2.828s-2.047-0.781-2.828 0l-13.333 13.333c-0.781 0.781-0.781 2.047 0 2.828l13.333 13.333c0.781 0.781 2.047 0.781 2.828 0s0.781-2.047 0-2.828l-11.919-11.919 11.919-11.919z"></path>
</symbol>
<symbol id="pointer-small-right" viewBox="0 0 32 32">
<path d="M7.252 3.414c-0.781-0.781-0.781-2.047 0-2.828s2.047-0.781 2.828 0l13.333 13.333c0.781 0.781 0.781 2.047 0 2.828l-13.333 13.333c-0.781 0.781-2.047 0.781-2.828 0s-0.781-2.047 0-2.828l11.919-11.919-11.919-11.919z"></path>
</symbol>
<symbol id="pointer-up" viewBox="0 0 32 32">
<path d="M27.253 23.414c0.781 0.781 2.047 0.781 2.828 0s0.781-2.047 0-2.828l-13.333-13.333c-0.781-0.781-2.047-0.781-2.828 0l-13.333 13.333c-0.781 0.781-0.781 2.047 0 2.828s2.047 0.781 2.828 0l11.919-11.919 11.919 11.919z"></path>
</symbol>
<symbol id="Triangle-down" viewBox="0 0 32 32">
<path d="M31.799 6.58l-15.314 16.317c-0.268 0.285-0.702 0.285-0.97 0l-15.314-16.317c-0.268-0.285-0.268-0.748 0-1.033 0.129-0.137 0.303-0.214 0.485-0.214h30.629c0.379 0 0.686 0.327 0.686 0.731 0 0.194-0.072 0.38-0.201 0.517z"></path>
</symbol>
<symbol id="Triangle-up" viewBox="0 0 32 32">
<path d="M31.799 21.864l-15.314-16.317c-0.268-0.285-0.702-0.285-0.97 0l-15.314 16.317c-0.268 0.285-0.268 0.748 0 1.033 0.129 0.137 0.303 0.214 0.485 0.214h30.629c0.379 0 0.686-0.327 0.686-0.731 0-0.194-0.072-0.38-0.201-0.517z"></path>
</symbol>
</defs>
</svg>
